<svg width="169" height="98" viewBox="0 0 169 98" fill="none" xmlns="http://www.w3.org/2000/svg">
<g opacity="0.8">
<path fill-rule="evenodd" clip-rule="evenodd" d="M54.9722 40.6136C52.796 42.0958 50.7992 43.33 48.5725 44.9356C42.5983 46.229 35.8204 44.7188 30.5583 46.4346C29.1359 47.2252 27.6537 46.8588 26.308 46.6246C24.5536 46.3548 23.196 46.5666 21.5213 47.1984C18.3283 46.2969 14.8636 44.1991 11.7254 43.092C6.92748 43.5792 4.63038 42.8802 1 43.6291V42.8976C3.27405 42.36 5.34811 41.7264 7.06891 41.0049C8.91494 40.0411 12.2793 42.4179 14.5353 41.9749C17.3912 41.469 19.5307 38.4841 22.6147 38.4922C22.0733 34.2089 22.6035 19.0612 23.0676 14.7792L22.0614 14.4128C20.6465 11.0715 23.3492 7.64239 25.4563 5.12909C28.111 2.47811 32.1838 2.48185 35.4297 4.08615C39.1785 6.97201 41.5553 9.67221 41.9622 15.0714L40.2856 15.4228C40.5965 20.0618 40.8588 29.7549 40.8956 34.4699C42.5771 34.3329 45.0511 32.8283 46.6829 32.8052C46.9726 29.9499 46.8093 23.5963 47.2342 20.7023C46.6417 19.8325 45.4972 20.0145 44.582 19.9223C46.5551 13.5649 50.3868 8.58316 54.9654 3.92042L54.9193 3.78336C56.0183 2.68621 78.7887 7.3695 80.902 7.78693C86.1797 9.9264 90.2692 17.8251 90.2649 23.1215C89.2587 23.2118 88.6182 23.8517 87.6556 23.7595C87.5379 27.2858 87.6681 29.429 87.8687 32.89C95.3139 34.6251 66.7001 34.9061 71.4339 36.5141C49.2466 35.2151 60.8119 40.1221 54.9722 40.6136Z" stroke="#268224"/>
<path fill-rule="evenodd" clip-rule="evenodd" d="M88.3428 21.8835C85.3136 22.0592 82.4271 22.0312 79.3755 22.334L67.5723 23.0542C66.8801 23.0542 66.4072 22.7975 65.7892 22.5489C65.5618 21.6324 68.0302 21.4075 68.5803 21.4088C72.5465 21.6094 76.2236 21.7427 80.201 21.3278L80.1549 21.4642L87.6132 20.7384L87.7035 20.8767C88.1197 20.8767 88.7558 21.1191 88.7558 21.6094C88.6256 21.739 88.5072 21.8025 88.3428 21.8835Z" stroke="#268224"/>
<path fill-rule="evenodd" clip-rule="evenodd" d="M84.6869 19.2724C79.1015 20.0649 73.3354 19.4537 67.7581 20.4936C66.9238 20.3528 65.699 20.7085 65.7002 19.4849C69.1493 18.4532 71.6993 17.8681 75.3553 18.0756L86.7454 18.5884C86.5978 19.3291 85.196 19.2562 84.6869 19.2724Z" stroke="#268224"/>
<path fill-rule="evenodd" clip-rule="evenodd" d="M85.741 17.0327C79.5201 16.2807 73.2537 16.348 67.029 17.0601C66.3568 16.9255 65.8079 17.1193 65.2908 16.6009C65.6671 13.6247 83.3112 15.5536 85.8787 16.3455L86.1528 16.5287L86.0606 17.0782L85.741 17.0327Z" stroke="#268224"/>
<path fill-rule="evenodd" clip-rule="evenodd" d="M84.0956 31.9728C79.8547 33.9777 73.6786 33.4413 68.7523 33.7615L67.6552 33.9435V33.8974L66.9225 33.6687L67.067 25.7083C70.8557 25.712 74.3384 24.5245 78.1388 24.5289L84.8189 23.8492C84.7778 26.5238 84.7984 29.1723 84.6931 31.852L84.0956 31.9728Z" stroke="#268224"/>
<path fill-rule="evenodd" clip-rule="evenodd" d="M82.7243 14.0104C79.3606 14.0066 76.195 13.2559 72.7048 13.5425C70.2557 13.5412 66.7468 14.4409 64.5157 13.9929C64.2185 13.8453 63.879 13.6758 63.6466 13.4434C64.6709 11.0603 77.5245 12.1201 79.659 12.4055L85.285 14.2864C84.2146 14.5917 83.723 14.1543 82.7243 14.0104Z" stroke="#268224"/>
<path fill-rule="evenodd" clip-rule="evenodd" d="M82.2696 11.54C77.6175 10.8703 72.7504 10.0965 68.0415 10.5201L61.6375 10.3314C62.3907 7.70655 78.3321 9.70211 80.4853 10.165C81.2697 10.322 82.1544 10.4379 82.5431 11.2186L82.2696 11.54Z" stroke="#268224"/>
<path fill-rule="evenodd" clip-rule="evenodd" d="M71.8874 7.59569L71.7498 7.55021L71.5217 7.59444H71.3386L71.1548 7.458L71.0638 7.54896L70.9728 7.50286L70.8345 7.45675L70.6968 7.50286L70.561 7.54896L69.9199 7.50161L68.7306 7.41003C67.4216 7.39694 66.0983 7.42062 64.7955 7.54273C62.1632 7.62248 61.2412 8.54082 58.85 7.26299V7.08045L58.9409 6.8979L59.1247 6.80694L59.354 6.71473L60.1764 6.57953C61.6025 6.40384 63.0398 6.28795 64.4772 6.30789C67.3194 6.31474 70.1604 6.60383 72.9404 7.18512L73.0313 7.41376L72.7559 7.45987L72.4831 7.45862L72.2077 7.50473L71.8874 7.59569Z" stroke="#268224"/>
<path fill-rule="evenodd" clip-rule="evenodd" d="M71.8676 29.9661C71.186 30.2122 70.2813 30.1804 69.5792 30.2845L69.4882 29.8733L69.3979 29.4147L69.3524 28.9574L69.3979 28.5001C70.1985 28.5873 71.024 28.6721 71.824 28.502L71.8682 28.8696V29.2347V29.601L71.8676 29.9661Z" stroke="#268224"/>
<path fill-rule="evenodd" clip-rule="evenodd" d="M69.353 27.7219L69.3542 27.2646L69.3081 26.7619L69.4003 26.3968L69.9492 26.3045L71.5504 26.2603L71.6407 26.5806V26.9456V27.3132L71.7323 27.6789L69.353 27.7219Z" stroke="#268224"/>
<path fill-rule="evenodd" clip-rule="evenodd" d="M63.9949 34.7515L62.8965 35.2811C62.3757 34.9902 62.0093 34.8705 61.4318 34.6917C60.9863 31.3299 61.1632 27.8222 61.1657 24.3563C60.1982 24.3264 59.3384 24.0031 58.3758 23.9725C56.2594 23.952 53.414 23.1315 51.3337 23.529C50.887 26.7818 50.8029 29.5873 51.0503 32.7317C50.4652 32.5921 49.846 32.66 49.2672 32.5224C48.841 32.1772 48.8591 26.6117 49.0441 26.0229C48.6416 25.294 49.2235 20.4711 49.279 19.5272L49.6023 16.4458C50.892 13.6241 53.3723 11.0634 54.9604 8.38129C56.2862 9.78684 57.5385 11.2665 58.8917 12.6652L58.9826 12.6023C60.372 14.4247 63.0896 15.0819 63.2778 17.7311C63.3227 18.3622 63.408 18.9111 63.5507 19.5098L63.5064 19.5185C63.5064 19.7011 63.5974 19.7727 63.5974 19.9584L63.4591 20.0755C63.927 20.6904 64.2024 26.1936 63.9557 27.7132C64.1388 28.7898 63.8952 29.9455 64.1357 31.1112C63.8441 31.5535 64.1438 33.9802 64.1781 34.6251L63.9949 34.7515Z" stroke="#268224"/>
<path fill-rule="evenodd" clip-rule="evenodd" d="M59.2375 32.9585C57.3173 32.9404 56.5541 31.7729 55.3977 30.5773C54.4862 31.1168 53.2645 32.4893 52.2421 31.8651C52.3474 31.2146 53.9187 30.0975 54.4856 29.4247C53.7025 28.616 51.6969 26.2983 52.1106 24.9819L52.2483 24.9102C53.6271 25.9015 54.4202 27.183 55.4918 28.4552C55.5821 28.4384 58.5534 25.451 59.2013 25.0043L59.4281 25.0971C58.5154 26.6397 58.073 27.6497 56.7721 29.0353L56.498 29.5455C57.6294 30.4633 58.4842 31.6775 59.5596 32.6682L59.2375 32.9585Z" stroke="#268224"/>
<path fill-rule="evenodd" clip-rule="evenodd" d="M55.7921 38.038C55.5436 38.4511 54.1542 39.0318 53.7318 39.2722C49.6416 42.6733 47.4492 45.1947 41.8438 44.8776L34.9357 44.5057C33.0822 44.3194 29.8692 44.6247 28.1173 45.3231L27.6612 45.277C25.918 47.0171 19.0292 45.3025 16.9046 44.8745L16.7663 44.6459C16.3177 44.5705 15.3078 44.4097 14.9377 44.1873C15.9689 43.1581 21.1088 40.3993 22.596 40.4005L36.5948 39.8193C39.2221 38.628 41.6145 37.415 43.6444 35.3877C45.8605 33.4513 50.631 34.4164 53.4259 34.2045C54.9648 34.8899 57.2893 36.0661 58.7665 36.8057C57.6388 36.9297 56.913 37.7894 55.7921 38.038Z" stroke="#268224"/>
<path fill-rule="evenodd" clip-rule="evenodd" d="M58.1073 19.9061L55.4539 19.8631L55.5934 17.5953C56.4731 17.5734 57.0762 17.7248 58.0176 17.5454L58.1073 19.9061Z" stroke="#268224"/>
<path fill-rule="evenodd" clip-rule="evenodd" d="M58.0183 16.4464C57.3255 16.2327 56.3592 16.1854 55.5941 16.2209L55.6876 13.687C58.2738 14.3032 57.7741 13.5219 58.0183 16.4464Z" stroke="#268224"/>
<path fill-rule="evenodd" clip-rule="evenodd" d="M54.5879 16.0464L52.6677 16.0925L52.9431 13.8901C53.6689 13.6066 54.0969 13.9443 54.7736 13.816C54.9013 14.2427 54.6433 15.5355 54.5879 16.0464Z" stroke="#268224"/>
<path fill-rule="evenodd" clip-rule="evenodd" d="M54.5393 19.716C53.9542 19.7117 53.1287 19.5671 52.573 19.4494C52.2951 18.6662 52.6901 18.1298 52.6203 17.2906L54.4956 17.3915C54.495 18.1709 54.4757 18.9497 54.5393 19.716Z" stroke="#268224"/>
<path fill-rule="evenodd" clip-rule="evenodd" d="M29.8923 38.3464C28.0301 37.1309 25.8053 38.9813 23.9754 37.5259C23.5057 30.2016 23.7237 24.3807 24.2701 15.049C25.7162 15.5112 31.5066 15.4826 33.1719 15.5418C34.9812 15.8302 36.7338 15.948 38.5642 15.7773C38.1879 17.0956 35.5631 17.4495 34.8236 18.0463C35.76 18.7597 37.3711 19.1834 38.4565 19.5279C37.6584 20.3565 35.826 20.7764 34.7706 20.7764C34.9133 21.5446 36.6248 22.6873 37.2285 22.8792C36.122 23.0137 33.8417 23.1309 32.9383 23.7875C33.8454 24.7507 36.6977 25.385 37.9175 25.3875C36.2341 26.4092 32.4274 26.1719 30.4125 26.5812C31.4842 28.1444 35.2074 28.3973 36.8709 28.7512C34.5245 29.9511 31.9645 29.9997 29.4593 30.001C31.8866 30.7748 34.7332 30.3493 37.2254 30.928C37.4359 30.9561 37.8534 30.9293 38.034 31.0446C35.2896 33.161 32.0586 34.027 28.8444 33.427C31.5845 36.4823 36.7219 36.5988 39.8527 35.2413C37.6521 37.0188 32.4511 39.1227 29.8923 38.3464Z" stroke="#268224"/>
<path fill-rule="evenodd" clip-rule="evenodd" d="M25.8476 13.844C24.7872 13.5169 24.1767 13.3263 23.3649 12.6135C22.8347 10.4846 25.5654 7.13462 27.118 5.65057C29.2649 5.93467 31.448 6.31721 33.5221 6.94709C32.7227 7.55704 30.0244 7.94082 28.921 8.19876C30.8748 8.86041 34.2199 9.06414 35.7855 10.028C34.0105 11.0423 30.2612 10.879 28.232 10.9058C30.8113 12.0958 34.9189 12.6285 37.7506 12.7157C35.9887 13.173 28.1821 14.1979 25.8476 13.844Z" stroke="#268224"/>
<path fill-rule="evenodd" clip-rule="evenodd" d="M28.0474 21.1421L27.8655 20.4556L27.7745 19.8163L27.7303 19.1746L27.6393 18.4432L27.6406 17.3454L27.6867 17.2083V17.0258L27.6406 16.7971L27.6867 16.6146H27.7321L27.6879 16.4763V16.2937L27.6418 16.1112L27.5957 15.9747C32.4709 15.948 30.8504 15.2726 31.5737 18.7678L31.5276 19.0425L31.6198 19.2718L31.7108 19.5005V19.7752L31.7557 20.187L31.8454 20.6443V21.0562C31.0622 21.6823 29.0243 21.2032 28.0474 21.1421Z" stroke="#268224"/>
<path fill-rule="evenodd" clip-rule="evenodd" d="M29.9253 19.0401L29.7876 19.2226L29.6506 19.3597L29.5122 19.4058L29.3284 19.45C28.7241 19.0288 28.1048 18.075 28.6917 17.3921L28.83 17.1629L29.0119 16.9797L29.2412 16.9342L29.4699 16.9797L29.653 16.9816L29.8811 16.8433L30.1091 17.3473L30.063 17.9423L29.9714 18.4918L29.9253 19.0401Z" stroke="#268224"/>
<path fill-rule="evenodd" clip-rule="evenodd" d="M100.518 33.2669L99.533 43.7363L98.9137 43.9313L97.7593 44.0029L96.6061 44.2571L96.0422 44.2228L95.8204 43.816L94.7968 43.6416L95.0323 43.2553L96.8808 43.626L97.3007 43.2515L97.2746 42.0952L96.7332 41.6952L95.5282 41.5395L91.5994 41.5021L88.2756 41.9563L86.2794 41.9843L85.4196 42.3232L85.3019 43.178L85.9024 43.5132L87.2962 43.2565L89.6911 43.4173L89.1671 43.8391L87.2881 43.5755L85.928 43.9861L84.5087 43.849L83.0982 44.1238L83.0153 44.4303L82.4577 44.1213L82.1394 42.0896L76.415 42.031L73.5235 42.0933L70.6065 42.3401L70.1118 42.7307L70.0856 43.7057L70.5517 44.0453L72.0276 44.0129L72.141 44.3306L71.0532 44.735L69.7691 44.4889L68.8701 44.4621L67.9586 44.5275L66.3955 44.7898L65.1301 44.7412L64.3046 44.5001L65.3724 43.897L65.9487 43.8104L66.5163 44.026C68.2839 41.0541 62.0959 42.9618 61.8044 42.9724L61.6031 39.4934L62.8274 39.5844L67.7275 39.4629L68.1082 38.815L68.3399 37.5459L67.5107 37.2144L66.7662 37.3521L66.578 37.0356L61.9875 37.3496L61.4673 37.1347L61.286 33.9871L65.0373 34.1005L68.8533 33.8195L69.0178 33.7093L69.1343 33.4476L69.2333 33.0956L69.3636 32.7436L69.3523 32.2408L69.4358 31.9043L70.2645 31.4601L71.1797 31.5617L71.9504 32.0632L72.3042 32.908L72.2831 33.2881L72.3173 33.5317C75.6649 34.098 78.6199 33.8027 81.9587 33.642L82.2459 33.5903L82.4421 33.4787L82.4833 33.3105L82.502 32.1075L82.4309 30.8757L82.9468 30.834L83.4222 30.9449L83.8845 31.209L84.2876 31.566L84.9318 32.48L85.2265 33.4638L91.4212 33.3896L97.6154 33.3005L97.5175 31.5523L98.1107 30.839L99.0838 31.5181L99.7368 31.4271L100.05 33.247L100.518 33.2669Z" stroke="#268224"/>
<path fill-rule="evenodd" clip-rule="evenodd" d="M100.518 33.2669L99.533 43.7363L98.9137 43.9313L97.7593 44.0029L96.6061 44.2571L96.0422 44.2228L95.8204 43.816L94.7968 43.6416L95.0323 43.2553L96.8808 43.626L97.3007 43.2515L97.2746 42.0952L96.7332 41.6952L95.5282 41.5395L91.5994 41.5021L88.2756 41.9563L86.2794 41.9843L85.4196 42.3232L85.3019 43.178L85.9024 43.5132L87.2962 43.2565L89.6911 43.4173L89.1671 43.8391L87.2881 43.5755L85.928 43.9861L84.5087 43.849L83.0982 44.1238L83.0153 44.4303L82.4577 44.1213L82.1394 42.0896L76.415 42.031L73.5235 42.0933L70.6065 42.3401L70.1118 42.7307L70.0856 43.7057L70.5517 44.0453L72.0276 44.0129L72.141 44.3306L71.0532 44.735L69.7691 44.4889L68.8701 44.4621L67.9586 44.5275L66.3955 44.7898L65.1301 44.7412L64.3046 44.5001L65.3724 43.897L65.9487 43.8104L66.5163 44.026C68.2839 41.0541 62.0959 42.9618 61.8044 42.9724L61.6031 39.4934L62.8274 39.5844L67.7275 39.4629L68.1082 38.815L68.3399 37.5459L67.5107 37.2144L66.7662 37.3521L66.578 37.0356L61.9875 37.3496L61.4673 37.1347L61.286 33.9871L65.0373 34.1005L68.8533 33.8195L69.0178 33.7093L69.1343 33.4476L69.2333 33.0956L69.3636 32.7436L69.3523 32.2408L69.4358 31.9043L70.2645 31.4601L71.1797 31.5617L71.9504 32.0632L72.3042 32.908L72.2831 33.2881L72.3173 33.5317C75.6649 34.098 78.6199 33.8027 81.9587 33.642L82.2459 33.5903L82.4421 33.4787L82.4833 33.3105L82.502 32.1075L82.4309 30.8757L82.9468 30.834L83.4222 30.9449L83.8845 31.209L84.2876 31.566L84.9318 32.48L85.2265 33.4638L91.4212 33.3896L97.6154 33.3005L97.5175 31.5523L98.1107 30.839L99.0838 31.5181L99.7368 31.4271L100.05 33.247L100.518 33.2669Z" stroke="#268224" stroke-width="0.214" stroke-linejoin="bevel"/>
<path fill-rule="evenodd" clip-rule="evenodd" d="M97.2982 38.2741L97.5824 38.0237L97.4696 36.3671L88.4164 36.5945L85.4103 36.9483L85.3149 37.468L85.5729 38.848L89.954 38.6916L97.2982 38.2741Z" stroke="#268224"/>
<path fill-rule="evenodd" clip-rule="evenodd" d="M97.2982 38.2741L97.5824 38.0237L97.4696 36.3671L88.4164 36.5945L85.4103 36.9483L85.3149 37.468L85.5729 38.848L89.954 38.6916L97.2982 38.2741Z" stroke="#268224" stroke-width="0.214" stroke-linejoin="bevel"/>
<path fill-rule="evenodd" clip-rule="evenodd" d="M82.3786 38.2318L82.4247 37.5763L82.3356 37.0299L81.9362 36.8256L79.5912 36.8L75.8063 37.0511L73.5378 37.0997L72.6045 36.9066L72.1834 37.1296L71.4532 37.1458L71.1585 37.5776L70.9865 38.0679L70.7485 39.0635L82.1942 38.9364L82.3786 38.2318Z" stroke="#268224"/>
<path fill-rule="evenodd" clip-rule="evenodd" d="M82.3786 38.2318L82.4247 37.5763L82.3356 37.0299L81.9362 36.8256L79.5912 36.8L75.8063 37.0511L73.5378 37.0997L72.6045 36.9066L72.1834 37.1296L71.4532 37.1458L71.1585 37.5776L70.9865 38.0679L70.7485 39.0635L82.1942 38.9364L82.3786 38.2318Z" stroke="#268224" stroke-width="0.214" stroke-linejoin="bevel"/>
<path fill-rule="evenodd" clip-rule="evenodd" d="M105.361 26.3544C105.443 26.1706 105.867 25.603 105.672 25.4498C102.628 23.081 101.01 17.2787 106.032 16.5292C108.031 16.2302 105.939 11.3207 111.039 12.5581C113.192 13.0802 109.86 10.4504 112.2 8.78875C113.779 7.66855 113.563 7.61746 114.409 5.7789C114.836 4.85059 116.12 5.70103 116.646 5.04623C117.045 4.55341 116.483 3.92913 116.844 3.40953C119.074 0.205922 125.056 0.14923 126.298 3.52542C128.016 8.19438 127.268 4.47989 129.314 4.9671C132.806 5.80009 131.525 8.97815 131.663 8.64732C131.957 7.94268 135.173 6.39757 136.229 9.75631C136.57 10.8391 136.294 10.9868 136.394 11.4347C137.586 11.3787 138.671 11.9986 138.631 13.9811C140.71 14.9125 140.498 19.1709 139.432 21.0425C138.824 22.1122 138.596 21.4001 138.576 22.9302C138.393 23.0156 138.209 23.1009 138.027 23.1875C137.994 23.7551 137.964 24.3227 137.932 24.8909L137.588 26.3706L136.267 27.3307C135.652 27.3656 135.695 28.2241 135.079 28.2596L133.524 27.393L132.636 28.6733L132.263 28.8284L131.855 28.8695L131.479 28.9424L131.175 29.1624C130.456 29.2621 129.319 30.1206 128.632 31.0489L127.702 30.5312L125.688 31.7791L126.696 32.6706L126.812 33.7329L134.867 33.7703L134.772 32.1897L134.925 31.5473L135.919 31.6925L136.737 31.5398L137.259 31.6937L137.807 32.4289L138.174 35.2525L138.616 40.861L138.954 43.1375L138.786 43.8253L136.794 43.9898L135.384 43.5337L134.552 43.6889L134.331 43.3911L135.465 43.0764L135.747 42.0048L135.471 41.8883L133.772 41.4996L127.729 41.5388L126.348 41.7812L126.047 42.0011L125.924 42.5668L126.065 42.73L126.925 43.1076L126.933 43.4577L126.306 43.3643L125.92 43.7848L124.716 43.72L123.378 43.8097L122.888 42.9375L123.135 41.6989L119.043 41.1937L117.368 41.2304L114.944 41.7101L115.119 42.0721L115.501 42.854L116.008 42.388L116.222 42.4135L116.95 43.0216L117.284 42.9219L116.975 43.4615L115.772 43.3057L115.395 43.6023L113.762 43.4253L112.924 43.4116L112.1 43.2472L110.944 43.363L108.873 43.2565L108.3 43.5418L107.411 43.3038L107.239 43.0335H107.877L109.148 42.7176L111.789 42.9338L112.243 42.1942L111.439 41.6024L110.737 41.5401L109.963 41.5887L108.268 41.3961L106.464 41.6952L104.465 41.5257L103.491 41.5768L100.867 42.0148L100.352 42.864L101.424 43.1144L103.108 42.8029L103.741 42.5761L103.75 42.988L102.506 43.7767L100.213 43.4752L99.5343 43.7344L100.501 33.2638L111.16 33.632L111.312 32.9423L111.64 31.0028L110.661 31.9947L113.237 31.7897L113.515 32.0408L113.493 33.7933L115.397 33.8588L119.21 34.0799L121.11 33.9466L121.13 32.789L120.547 31.9498L120.17 31.3785L118.348 31.2383L116.076 30.4701L114.817 30.5137L113.496 29.1804L112.764 29.3923L111.714 30.8053L109.767 30.7336C109.424 30.5168 109.081 30.3 108.738 30.0844L107.53 30.1767C107.101 30.2022 107.383 29.4596 106.953 29.4851L106.286 28.8957C105.216 26.4871 105.581 28.1319 105.361 26.3544ZM119.61 22.3327L119.319 21.7994L118.95 21.3496L117.357 20.3042L116.982 21.8661L117.667 22.5053C118.377 24.0972 118.031 24.9382 118.984 22.952L119.61 22.3327ZM132.228 28.0771L132.942 26.9656L132.525 26.6653L132.038 26.8547L131.374 27.8023L130.867 27.8297L129.992 28.2079L129.296 29.2546L130.815 28.4365L132.228 28.0771ZM126.525 29.7225L127.447 28.5911L127.942 27.1899L127.447 26.284L126.517 26.3718L125.05 27.3992L124.561 28.948L124.596 29.7655C124.706 30.1013 124.817 30.4365 124.928 30.7717L126.525 29.7225ZM121.992 24.3738C119.447 24.2311 120.163 22.3365 119.733 26.5843L120.128 28.1599L121.204 28.7586L121.445 26.9375L121.992 24.3738ZM117.282 27.3057L117.243 27.1431L117.142 26.9662L117.311 26.4553L117.284 25.965L117.061 25.5451L116.659 25.1613L116.575 24.9339C116.192 24.4224 116.202 25.0741 115.918 25.5868C114.919 27.692 112.905 27.9188 115.955 29.6091L116.433 29.7131L116.856 29.687L117.231 29.4832L117.534 29.1331L117.606 28.7873L117.532 28.3319L117.39 27.8278L117.282 27.3057ZM127.997 36.4493L126.493 36.6343L126.397 38.4947L128.726 38.5047L135.503 38.5097L135.476 36.6219L134.135 36.5153L131.428 36.6954L127.997 36.4493ZM122.18 38.4037L121.95 36.9614L121.381 36.6998L114.98 36.382L114.344 36.5484L114.331 38.1315L114.552 38.3408L120.841 38.4779L122.18 38.4037ZM111.52 38.3296L111.888 37.7439L111.88 37.3321L111.436 36.5957L110.777 36.382L106.68 36.3178L102.116 36.4487L100.307 36.5938L100.235 37.4779L100.449 38.2349L102.543 38.5246L107.563 38.385L111.52 38.3296Z" stroke="#268224"/>
<path fill-rule="evenodd" clip-rule="evenodd" d="M105.361 26.3544C105.443 26.1706 105.867 25.603 105.672 25.4498C102.628 23.081 101.01 17.2787 106.032 16.5292C108.031 16.2302 105.939 11.3207 111.039 12.5581C113.192 13.0802 109.86 10.4504 112.2 8.78875C113.779 7.66855 113.563 7.61746 114.409 5.7789C114.836 4.85059 116.12 5.70103 116.646 5.04623C117.045 4.55341 116.483 3.92913 116.844 3.40953C119.074 0.205922 125.056 0.14923 126.298 3.52542C128.016 8.19438 127.268 4.47989 129.314 4.9671C132.806 5.80009 131.525 8.97815 131.663 8.64732C131.957 7.94268 135.173 6.39757 136.229 9.75631C136.57 10.8391 136.294 10.9868 136.394 11.4347C137.586 11.3787 138.671 11.9986 138.631 13.9811C140.71 14.9125 140.498 19.1709 139.432 21.0425C138.824 22.1122 138.596 21.4001 138.576 22.9302C138.393 23.0156 138.209 23.1009 138.027 23.1875C137.994 23.7551 137.964 24.3227 137.932 24.8909L137.588 26.3706L136.267 27.3307C135.652 27.3656 135.695 28.2241 135.079 28.2596L133.524 27.393L132.636 28.6733L132.263 28.8284L131.855 28.8695L131.479 28.9424L131.175 29.1624C130.456 29.2621 129.319 30.1206 128.632 31.0489L127.702 30.5312L125.688 31.7791L126.696 32.6706L126.812 33.7329L134.867 33.7703L134.772 32.1897L134.925 31.5473L135.919 31.6925L136.737 31.5398L137.259 31.6937L137.807 32.4289L138.174 35.2525L138.616 40.861L138.954 43.1375L138.786 43.8253L136.794 43.9898L135.384 43.5337L134.552 43.6889L134.331 43.3911L135.465 43.0764L135.747 42.0048L135.471 41.8883L133.772 41.4996L127.729 41.5388L126.348 41.7812L126.047 42.0011L125.924 42.5668L126.065 42.73L126.925 43.1076L126.933 43.4577L126.306 43.3643L125.92 43.7848L124.716 43.72L123.378 43.8097L122.888 42.9375L123.135 41.6989L119.043 41.1937L117.368 41.2304L114.944 41.7101L115.119 42.0721L115.501 42.854L116.008 42.388L116.222 42.4135L116.95 43.0216L117.284 42.9219L116.975 43.4615L115.772 43.3057L115.395 43.6023L113.762 43.4253L112.924 43.4116L112.1 43.2472L110.944 43.363L108.873 43.2565L108.3 43.5418L107.411 43.3038L107.239 43.0335H107.877L109.148 42.7176L111.789 42.9338L112.243 42.1942L111.439 41.6024L110.737 41.5401L109.963 41.5887L108.268 41.3961L106.464 41.6952L104.465 41.5257L103.491 41.5768L100.867 42.0148L100.352 42.864L101.424 43.1144L103.108 42.8029L103.741 42.5761L103.75 42.988L102.506 43.7767L100.213 43.4752L99.5343 43.7344L100.501 33.2638L111.16 33.632L111.312 32.9423L111.64 31.0028L110.661 31.9947L113.237 31.7897L113.515 32.0408L113.493 33.7933L115.397 33.8588L119.21 34.0799L121.11 33.9466L121.13 32.789L120.547 31.9498L120.17 31.3785L118.348 31.2383L116.076 30.4701L114.817 30.5137L113.496 29.1804L112.764 29.3923L111.714 30.8053L109.767 30.7336C109.424 30.5168 109.081 30.3 108.738 30.0844L107.53 30.1767C107.101 30.2022 107.383 29.4596 106.953 29.4851L106.286 28.8957C105.216 26.4871 105.581 28.1319 105.361 26.3544ZM119.61 22.3327L119.319 21.7994L118.95 21.3496L117.357 20.3042L116.982 21.8661L117.667 22.5053C118.377 24.0972 118.031 24.9382 118.984 22.952L119.61 22.3327ZM132.228 28.0771L132.942 26.9656L132.525 26.6653L132.038 26.8547L131.374 27.8023L130.867 27.8297L129.992 28.2079L129.296 29.2546L130.815 28.4365L132.228 28.0771ZM126.525 29.7225L127.447 28.5911L127.942 27.1899L127.447 26.284L126.517 26.3718L125.05 27.3992L124.561 28.948L124.596 29.7655C124.706 30.1013 124.817 30.4365 124.928 30.7717L126.525 29.7225ZM121.992 24.3738C119.447 24.2311 120.163 22.3365 119.733 26.5843L120.128 28.1599L121.204 28.7586L121.445 26.9375L121.992 24.3738ZM117.282 27.3057L117.243 27.1431L117.142 26.9662L117.311 26.4553L117.284 25.965L117.061 25.5451L116.659 25.1613L116.575 24.9339C116.192 24.4224 116.202 25.0741 115.918 25.5868C114.919 27.692 112.905 27.9188 115.955 29.6091L116.433 29.7131L116.856 29.687L117.231 29.4832L117.534 29.1331L117.606 28.7873L117.532 28.3319L117.39 27.8278L117.282 27.3057ZM127.997 36.4493L126.493 36.6343L126.397 38.4947L128.726 38.5047L135.503 38.5097L135.476 36.6219L134.135 36.5153L131.428 36.6954L127.997 36.4493ZM122.18 38.4037L121.95 36.9614L121.381 36.6998L114.98 36.382L114.344 36.5484L114.331 38.1315L114.552 38.3408L120.841 38.4779L122.18 38.4037ZM111.52 38.3296L111.888 37.7439L111.88 37.3321L111.436 36.5957L110.777 36.382L106.68 36.3178L102.116 36.4487L100.307 36.5938L100.235 37.4779L100.449 38.2349L102.543 38.5246L107.563 38.385L111.52 38.3296Z" stroke="#268224" stroke-width="0.214" stroke-linejoin="bevel"/>
<path fill-rule="evenodd" clip-rule="evenodd" d="M139.454 19.4724C139.903 17.1548 140.154 15.8022 138.325 14.0926C138.36 12.7338 137.602 11.3924 136.152 12.1462C135.928 11.2615 136.517 10.0554 135.036 8.90462C133.123 8.1869 133.185 8.15014 131.712 8.88469C131.417 7.51652 130.446 3.87118 127.685 6.33339L127.528 6.95393C126.521 6.89225 126.843 6.98009 126.503 6.00568C125.843 -1.62641 115.373 1.73046 117.454 5.67423L117.492 6.06362L116.843 6.27981C115.474 5.14652 114.238 6.16642 114.271 7.69159C114.404 8.15948 114.684 8.76943 114.413 9.21551C113.975 9.3071 113.212 9.17875 112.731 9.18997C111.291 10.851 112.576 12.6322 111.605 14.1075C110.807 14.1013 111.003 14.0321 110.498 13.3518C108.065 12.3711 106.994 15.6825 106.912 17.5441C101.603 17.8781 103.552 22.79 106.819 25.0591C106.047 26.7855 105.237 27.5294 106.469 29.072C107.693 29.6396 108.017 29.5069 109.047 28.6577L112.54 28.7063L111.081 26.9145L111.809 26.6964L113.547 28.4515L111.886 23.7034L112.273 23.6791L114.231 26.9556C115.165 24.7812 117.494 23.6666 115.071 21.1091L115.151 20.5777L116.158 21.7085L116.543 21.4817L116.077 17.9242C115.154 17.2208 114.592 17.0738 114.847 15.8775L115.346 15.9137C116.13 17.3971 116.413 17.5392 118.143 17.6594L118.654 18.2725C118.435 19.2394 118.078 19.7434 119.062 20.5534L119.38 20.126L120.042 20.44L120.702 22.8399C121.645 22.9938 122.608 23.4766 123.238 22.6449L122.428 21.2443L122.956 21.1552C124.275 22.2193 124.628 21.8935 126.245 21.9253C127.129 23.6585 127.267 23.8504 129.194 23.4965C128.486 24.271 127.423 23.8317 126.531 23.6006L125.947 22.5851C123.83 23.1458 123.345 24.2436 124.713 25.9463C126.388 26.0628 126.525 25.1046 128.499 25.9899C130.931 26.421 132.039 25.079 134.36 26.7344C137.192 26.8578 137.562 25.3295 137.096 22.8729C138.862 21.5627 138.766 21.6094 139.454 19.4724Z" stroke="#268224"/>
<path fill-rule="evenodd" clip-rule="evenodd" d="M139.454 19.4724C139.903 17.1548 140.154 15.8022 138.325 14.0926C138.36 12.7338 137.602 11.3924 136.152 12.1462C135.928 11.2615 136.517 10.0554 135.036 8.90462C133.123 8.1869 133.185 8.15014 131.712 8.88469C131.417 7.51652 130.446 3.87118 127.685 6.33339L127.528 6.95393C126.521 6.89225 126.843 6.98009 126.503 6.00568C125.843 -1.62641 115.373 1.73046 117.454 5.67423L117.492 6.06362L116.843 6.27981C115.474 5.14652 114.238 6.16642 114.271 7.69159C114.404 8.15948 114.684 8.76943 114.413 9.21551C113.975 9.3071 113.212 9.17875 112.731 9.18997C111.291 10.851 112.576 12.6322 111.605 14.1075C110.807 14.1013 111.003 14.0321 110.498 13.3518C108.065 12.3711 106.994 15.6825 106.912 17.5441C101.603 17.8781 103.552 22.79 106.819 25.0591C106.047 26.7855 105.237 27.5294 106.469 29.072C107.693 29.6396 108.017 29.5069 109.047 28.6577L112.54 28.7063L111.081 26.9145L111.809 26.6964L113.547 28.4515L111.886 23.7034L112.273 23.6791L114.231 26.9556C115.165 24.7812 117.494 23.6666 115.071 21.1091L115.151 20.5777L116.158 21.7085L116.543 21.4817L116.077 17.9242C115.154 17.2208 114.592 17.0738 114.847 15.8775L115.346 15.9137C116.13 17.3971 116.413 17.5392 118.143 17.6594L118.654 18.2725C118.435 19.2394 118.078 19.7434 119.062 20.5534L119.38 20.126L120.042 20.44L120.702 22.8399C121.645 22.9938 122.608 23.4766 123.238 22.6449L122.428 21.2443L122.956 21.1552C124.275 22.2193 124.628 21.8935 126.245 21.9253C127.129 23.6585 127.267 23.8504 129.194 23.4965C128.486 24.271 127.423 23.8317 126.531 23.6006L125.947 22.5851C123.83 23.1458 123.345 24.2436 124.713 25.9463C126.388 26.0628 126.525 25.1046 128.499 25.9899C130.931 26.421 132.039 25.079 134.36 26.7344C137.192 26.8578 137.562 25.3295 137.096 22.8729C138.862 21.5627 138.766 21.6094 139.454 19.4724Z" stroke="#268224" stroke-width="0.214" stroke-linejoin="bevel"/>
<path fill-rule="evenodd" clip-rule="evenodd" d="M104.856 43.4534L104.605 43.8397L104.175 43.6347L104.439 43.2484L105.016 43.0839L104.856 43.4534Z" stroke="#268224"/>
<path fill-rule="evenodd" clip-rule="evenodd" d="M104.856 43.4534L104.605 43.8397L104.175 43.6347L104.439 43.2484L105.016 43.0839L104.856 43.4534Z" stroke="#268224" stroke-width="0.214" stroke-linejoin="bevel"/>
<path fill-rule="evenodd" clip-rule="evenodd" d="M118.883 42.9967L118.993 43.1151L118.998 43.3138L118.829 43.3176L118.677 43.32L118.658 43.1686L118.55 43.1101L118.656 43.0465L118.667 42.8951L118.775 42.9531L118.883 42.9967Z" stroke="#268224"/>
<path fill-rule="evenodd" clip-rule="evenodd" d="M118.883 42.9967L118.993 43.1151L118.998 43.3138L118.829 43.3176L118.677 43.32L118.658 43.1686L118.55 43.1101L118.656 43.0465L118.667 42.8951L118.775 42.9531L118.883 42.9967Z" stroke="#268224" stroke-width="0.214" stroke-linejoin="bevel"/>
<path fill-rule="evenodd" clip-rule="evenodd" d="M120.274 43.9256L119.874 43.7356L119.73 43.4048L120.058 43.1226L120.456 43.1599L120.706 43.4895L120.699 43.9157L120.274 43.9256Z" stroke="#268224"/>
<path fill-rule="evenodd" clip-rule="evenodd" d="M120.274 43.9256L119.874 43.7356L119.73 43.4048L120.058 43.1226L120.456 43.1599L120.706 43.4895L120.699 43.9157L120.274 43.9256Z" stroke="#268224" stroke-width="0.214" stroke-linejoin="bevel"/>
<path fill-rule="evenodd" clip-rule="evenodd" d="M127.774 43.6552L127.681 43.5668L127.557 43.5394L128.094 42.9948L128.716 42.8889L128.842 43.0696L128.68 43.3163L128.381 43.5512L128.096 43.7549L127.928 43.7437L127.774 43.6552Z" stroke="#268224"/>
<path fill-rule="evenodd" clip-rule="evenodd" d="M127.774 43.6552L127.681 43.5668L127.557 43.5394L128.094 42.9948L128.716 42.8889L128.842 43.0696L128.68 43.3163L128.381 43.5512L128.096 43.7549L127.928 43.7437L127.774 43.6552Z" stroke="#268224" stroke-width="0.214" stroke-linejoin="bevel"/>
<path fill-rule="evenodd" clip-rule="evenodd" d="M129.587 43.7238L129.447 43.5437L129.456 43.2995L129.816 43.1088L130.2 43.1774L130.22 43.4347L129.997 43.7144L129.786 43.7181L129.587 43.7238Z" stroke="#268224"/>
<path fill-rule="evenodd" clip-rule="evenodd" d="M129.587 43.7238L129.447 43.5437L129.456 43.2995L129.816 43.1088L130.2 43.1774L130.22 43.4347L129.997 43.7144L129.786 43.7181L129.587 43.7238Z" stroke="#268224" stroke-width="0.214" stroke-linejoin="bevel"/>
<path fill-rule="evenodd" clip-rule="evenodd" d="M133.588 43.6359L133.338 43.2907L133.375 42.8789L133.586 42.8297L133.771 42.9007L133.912 43.0814L134.007 43.3069L133.939 43.629L133.588 43.6359Z" stroke="#268224"/>
<path fill-rule="evenodd" clip-rule="evenodd" d="M133.588 43.6359L133.338 43.2907L133.375 42.8789L133.586 42.8297L133.771 42.9007L133.912 43.0814L134.007 43.3069L133.939 43.629L133.588 43.6359Z" stroke="#268224" stroke-width="0.214" stroke-linejoin="bevel"/>
<path fill-rule="evenodd" clip-rule="evenodd" d="M132.496 22.0568L132.324 22.501L130.964 22.9882L130.521 22.9514L129.901 22.4779L129.43 21.8175L129.315 21.4101L129.459 21.0263L129.885 21.0163L130.38 21.3858L130.832 22.5795L132.496 22.0568Z" stroke="#268224"/>
<path fill-rule="evenodd" clip-rule="evenodd" d="M132.496 22.0568L132.324 22.501L130.964 22.9882L130.521 22.9514L129.901 22.4779L129.43 21.8175L129.315 21.4101L129.459 21.0263L129.885 21.0163L130.38 21.3858L130.832 22.5795L132.496 22.0568Z" stroke="#268224" stroke-width="0.214" stroke-linejoin="bevel"/>
<path fill-rule="evenodd" clip-rule="evenodd" d="M127.503 14.3998L126.819 14.4751L126.488 13.9655L126.414 13.3126L126.338 12.6584L125.932 12.1662L125.188 12.2721L124.457 12.9288L123.834 12.9419L123.409 12.3874L122.941 11.1338L122.506 10.7619L121.562 10.6915L120.609 11.0011L119.77 11.5986L119.056 12.421L118.735 12.4279C119.615 9.88593 123.494 8.96821 124.649 11.9787L125.146 11.7407L126.042 11.6908L126.826 12.0073L127.344 12.697L127.486 13.6833L128.436 13.2665L129.018 13.4073L129.996 14.2533L128.872 13.745L128.055 13.9449L127.503 14.3998Z" stroke="#268224"/>
<path fill-rule="evenodd" clip-rule="evenodd" d="M127.503 14.3998L126.819 14.4751L126.488 13.9655L126.414 13.3126L126.338 12.6584L125.932 12.1662L125.188 12.2721L124.457 12.9288L123.834 12.9419L123.409 12.3874L122.941 11.1338L122.506 10.7619L121.562 10.6915L120.609 11.0011L119.77 11.5986L119.056 12.421L118.735 12.4279C119.615 9.88593 123.494 8.96821 124.649 11.9787L125.146 11.7407L126.042 11.6908L126.826 12.0073L127.344 12.697L127.486 13.6833L128.436 13.2665L129.018 13.4073L129.996 14.2533L128.872 13.745L128.055 13.9449L127.503 14.3998Z" stroke="#268224" stroke-width="0.214" stroke-linejoin="bevel"/>
<path fill-rule="evenodd" clip-rule="evenodd" d="M119.369 26.8023L119.301 26.4834L119.146 24.965L119.506 23.3121L119.29 23.195L118.523 24.3538L117.789 22.7408L117.149 22.0848L116.99 22.3932L118.248 24.9382L118.794 26.9512L118.743 27.4403L118.934 28.5468L119.748 29.5499L121.523 32.7379L121.852 33.9348L123.515 34.0351L123.855 33.5709L124.027 33.1111L124.232 32.0246L124.45 31.5479L124.912 31.7972L125.307 31.7579L125.614 31.1417L126.944 30.0172L128.549 28.5032L129.441 26.7949L128.149 26.6104L127.536 27.8123L126.828 28.8627L125.407 30.0203L123.797 30.923L123.471 30.6259L123.168 29.277L123.285 26.9606L123.651 25.5669L123.2 25.1501L122.801 24.3065L122.289 26.6771L122.163 27.8976L121.853 29.0776L120.969 28.9281L120.226 28.4129L119.676 27.6472L119.369 26.8023Z" stroke="#268224"/>
<path fill-rule="evenodd" clip-rule="evenodd" d="M119.369 26.8023L119.301 26.4834L119.146 24.965L119.506 23.3121L119.29 23.195L118.523 24.3538L117.789 22.7408L117.149 22.0848L116.99 22.3932L118.248 24.9382L118.794 26.9512L118.743 27.4403L118.934 28.5468L119.748 29.5499L121.523 32.7379L121.852 33.9348L123.515 34.0351L123.855 33.5709L124.027 33.1111L124.232 32.0246L124.45 31.5479L124.912 31.7972L125.307 31.7579L125.614 31.1417L126.944 30.0172L128.549 28.5032L129.441 26.7949L128.149 26.6104L127.536 27.8123L126.828 28.8627L125.407 30.0203L123.797 30.923L123.471 30.6259L123.168 29.277L123.285 26.9606L123.651 25.5669L123.2 25.1501L122.801 24.3065L122.289 26.6771L122.163 27.8976L121.853 29.0776L120.969 28.9281L120.226 28.4129L119.676 27.6472L119.369 26.8023Z" stroke="#268224" stroke-width="0.214" stroke-linejoin="bevel"/>
<path fill-rule="evenodd" clip-rule="evenodd" d="M135.805 38.4112L136.135 38.9221L136.058 39.5476L136.087 41.6173L136.675 43.4166L137.272 43.5562L137.939 43.4808L138.558 43.2086L138.32 42.041L137.884 40.8791L137.85 39.4174L137.82 37.9265L137.541 37.0337L137.354 36.1397L137.555 35.6176L137.236 32.8084L136.942 31.9168L135.573 31.9461L135.365 32.1635L135.805 38.4112Z" stroke="#268224"/>
<path fill-rule="evenodd" clip-rule="evenodd" d="M135.805 38.4112L136.135 38.9221L136.058 39.5476L136.087 41.6173L136.675 43.4166L137.272 43.5562L137.939 43.4808L138.558 43.2086L138.32 42.041L137.884 40.8791L137.85 39.4174L137.82 37.9265L137.541 37.0337L137.354 36.1397L137.555 35.6176L137.236 32.8084L136.942 31.9168L135.573 31.9461L135.365 32.1635L135.805 38.4112Z" stroke="#268224" stroke-width="0.214" stroke-linejoin="bevel"/>
<path fill-rule="evenodd" clip-rule="evenodd" d="M132.409 35.5166L133.307 35.5727L135.362 35.4979L135.269 34.0544L132.923 34.0132L130.807 34.0288L126.944 34.2494L126.657 35.7322L129.094 35.7409L132.409 35.5166Z" stroke="#268224"/>
<path fill-rule="evenodd" clip-rule="evenodd" d="M132.409 35.5166L133.307 35.5727L135.362 35.4979L135.269 34.0544L132.923 34.0132L130.807 34.0288L126.944 34.2494L126.657 35.7322L129.094 35.7409L132.409 35.5166Z" stroke="#268224" stroke-width="0.214" stroke-linejoin="bevel"/>
<path fill-rule="evenodd" clip-rule="evenodd" d="M135.167 40.603L135.436 38.952L131.464 38.9931L127.9 38.9482L126.215 39.228L126.124 40.6005L129.717 40.6454L131.848 40.5993L135.167 40.603Z" stroke="#268224"/>
<path fill-rule="evenodd" clip-rule="evenodd" d="M135.167 40.603L135.436 38.952L131.464 38.9931L127.9 38.9482L126.215 39.228L126.124 40.6005L129.717 40.6454L131.848 40.5993L135.167 40.603Z" stroke="#268224" stroke-width="0.214" stroke-linejoin="bevel"/>
<path fill-rule="evenodd" clip-rule="evenodd" d="M123.421 43.0354L124.263 43.2752L125.051 43.0609L125.641 33.1205L126.006 32.3816L124.922 32.2377L124.376 33.0264L124.22 35.6948L123.893 40.2542L123.421 43.0354Z" stroke="#268224"/>
<path fill-rule="evenodd" clip-rule="evenodd" d="M123.421 43.0354L124.263 43.2752L125.051 43.0609L125.641 33.1205L126.006 32.3816L124.922 32.2377L124.376 33.0264L124.22 35.6948L123.893 40.2542L123.421 43.0354Z" stroke="#268224" stroke-width="0.214" stroke-linejoin="bevel"/>
<path fill-rule="evenodd" clip-rule="evenodd" d="M123.7 38.3694L123.513 36.7913L122.388 36.815L122.665 38.3464L123.7 38.3694Z" stroke="#268224"/>
<path fill-rule="evenodd" clip-rule="evenodd" d="M123.7 38.3694L123.513 36.7913L122.388 36.815L122.665 38.3464L123.7 38.3694Z" stroke="#268224" stroke-width="0.214" stroke-linejoin="bevel"/>
<path fill-rule="evenodd" clip-rule="evenodd" d="M123.792 35.5827L123.766 34.4245L117.036 34.3423L115.555 34.2077L115.403 34.1958L114.122 34.0712L113.823 34.3217L113.846 35.3111L114.061 35.4892L121.224 35.8057L123.792 35.5827Z" stroke="#268224"/>
<path fill-rule="evenodd" clip-rule="evenodd" d="M123.792 35.5827L123.766 34.4245L117.036 34.3423L115.555 34.2077L115.403 34.1958L114.122 34.0712L113.823 34.3217L113.846 35.3111L114.061 35.4892L121.224 35.8057L123.792 35.5827Z" stroke="#268224" stroke-width="0.214" stroke-linejoin="bevel"/>
<path fill-rule="evenodd" clip-rule="evenodd" d="M123.398 40.5688L123.49 39.167L122.693 38.9707L121.094 38.9751L116.874 38.7925L114.548 38.9184L114.625 40.395L116.56 40.5046L123.398 40.5688Z" stroke="#268224"/>
<path fill-rule="evenodd" clip-rule="evenodd" d="M123.398 40.5688L123.49 39.167L122.693 38.9707L121.094 38.9751L116.874 38.7925L114.548 38.9184L114.625 40.395L116.56 40.5046L123.398 40.5688Z" stroke="#268224" stroke-width="0.214" stroke-linejoin="bevel"/>
<path fill-rule="evenodd" clip-rule="evenodd" d="M113.564 39.899L113.086 34.0332L112.633 33.5105L112.711 32.2296L111.848 31.7162L111.711 31.7324L112.045 35.2126L112.463 35.5223L112.457 37.3203L112.618 39.1134L112.87 40.8884L113.142 42.8621L114.377 43.0491L113.564 39.899Z" stroke="#268224"/>
<path fill-rule="evenodd" clip-rule="evenodd" d="M113.564 39.899L113.086 34.0332L112.633 33.5105L112.711 32.2296L111.848 31.7162L111.711 31.7324L112.045 35.2126L112.463 35.5223L112.457 37.3203L112.618 39.1134L112.87 40.8884L113.142 42.8621L114.377 43.0491L113.564 39.899Z" stroke="#268224" stroke-width="0.214" stroke-linejoin="bevel"/>
<path fill-rule="evenodd" clip-rule="evenodd" d="M112.154 40.2193L112.073 39.3065L111.714 38.8735L109.779 38.7632L107.573 38.9022L100.378 39.1813L100.285 39.7919L100.531 40.5482L100.593 40.6224L101.045 40.3993L106.345 40.4828L111.737 40.6087L112.154 40.2193Z" stroke="#268224"/>
<path fill-rule="evenodd" clip-rule="evenodd" d="M112.154 40.2193L112.073 39.3065L111.714 38.8735L109.779 38.7632L107.573 38.9022L100.378 39.1813L100.285 39.7919L100.531 40.5482L100.593 40.6224L101.045 40.3993L106.345 40.4828L111.737 40.6087L112.154 40.2193Z" stroke="#268224" stroke-width="0.214" stroke-linejoin="bevel"/>
<path fill-rule="evenodd" clip-rule="evenodd" d="M111.301 35.2749L111.333 34.6799L111.174 34.3023L109.432 34.0668L103.932 33.8967L100.265 33.9921L100.422 35.511L106.935 35.3689L110.605 35.4879L111.301 35.2749Z" stroke="#268224"/>
<path fill-rule="evenodd" clip-rule="evenodd" d="M111.301 35.2749L111.333 34.6799L111.174 34.3023L109.432 34.0668L103.932 33.8967L100.265 33.9921L100.422 35.511L106.935 35.3689L110.605 35.4879L111.301 35.2749Z" stroke="#268224" stroke-width="0.214" stroke-linejoin="bevel"/>
<path fill-rule="evenodd" clip-rule="evenodd" d="M97.4422 35.1185L97.7344 34.5192L97.6241 33.6071L89.1322 33.7622L85.4676 33.9933L85.2614 34.3323L85.2794 35.169L85.5062 35.7895L90.101 35.6587L97.4422 35.1185Z" stroke="#268224"/>
<path fill-rule="evenodd" clip-rule="evenodd" d="M97.4422 35.1185L97.7344 34.5192L97.6241 33.6071L89.1322 33.7622L85.4676 33.9933L85.2614 34.3323L85.2794 35.169L85.5062 35.7895L90.101 35.6587L97.4422 35.1185Z" stroke="#268224" stroke-width="0.214" stroke-linejoin="bevel"/>
<path fill-rule="evenodd" clip-rule="evenodd" d="M98.145 39.4423L97.8596 42.3556L97.9855 43.2522L98.9163 43.3238L99.5131 42.7774L99.5904 42.1513L99.4116 40.9382L99.2371 39.9364L99.2882 35.9615L99.3661 31.819L98.6727 32.123L98.4322 31.5959L97.9948 31.819L98.2758 32.8165L98.0777 36.3079L98.145 39.4423Z" stroke="#268224"/>
<path fill-rule="evenodd" clip-rule="evenodd" d="M98.145 39.4423L97.8596 42.3556L97.9855 43.2522L98.9163 43.3238L99.5131 42.7774L99.5904 42.1513L99.4116 40.9382L99.2371 39.9364L99.2882 35.9615L99.3661 31.819L98.6727 32.123L98.4322 31.5959L97.9948 31.819L98.2758 32.8165L98.0777 36.3079L98.145 39.4423Z" stroke="#268224" stroke-width="0.214" stroke-linejoin="bevel"/>
<path fill-rule="evenodd" clip-rule="evenodd" d="M97.3456 40.3881L97.4777 40.203L97.421 39.0162L92.2418 38.9321L86.632 39.2355L85.8103 39.2698L85.5878 39.5021L85.4651 40.19L85.3866 40.7551L86.3049 40.9631L95.446 40.6279L97.3456 40.3881Z" stroke="#268224"/>
<path fill-rule="evenodd" clip-rule="evenodd" d="M97.3456 40.3881L97.4777 40.203L97.421 39.0162L92.2418 38.9321L86.632 39.2355L85.8103 39.2698L85.5878 39.5021L85.4651 40.19L85.3866 40.7551L86.3049 40.9631L95.446 40.6279L97.3456 40.3881Z" stroke="#268224" stroke-width="0.214" stroke-linejoin="bevel"/>
<path fill-rule="evenodd" clip-rule="evenodd" d="M84.4651 41.8404C84.4452 38.896 83.5997 35.8157 84.5916 32.946C83.9511 32.5012 84.8096 32.085 83.0627 31.29L82.8689 32.1012L82.8994 32.8775L83.1891 34.2868L83.1574 35.6269L83.125 37.6069L83.1063 39.6012L83.1966 41.5781L83.4521 43.5525L83.576 43.6266L83.8944 43.5587L84.2396 43.3381L84.49 42.9967L84.5075 42.4179L84.4651 41.8404Z" stroke="#268224"/>
<path fill-rule="evenodd" clip-rule="evenodd" d="M84.4651 41.8404C84.4452 38.896 83.5997 35.8157 84.5916 32.946C83.9511 32.5012 84.8096 32.085 83.0627 31.29L82.8689 32.1012L82.8994 32.8775L83.1891 34.2868L83.1574 35.6269L83.125 37.6069L83.1063 39.6012L83.1966 41.5781L83.4521 43.5525L83.576 43.6266L83.8944 43.5587L84.2396 43.3381L84.49 42.9967L84.5075 42.4179L84.4651 41.8404Z" stroke="#268224" stroke-width="0.214" stroke-linejoin="bevel"/>
<path fill-rule="evenodd" clip-rule="evenodd" d="M81.3369 35.8805L82.3357 35.6151L82.6453 34.4656L82.3924 34.06L80.1245 34.0644L74.5696 34.1086L73.136 33.9877L72.5267 34.0008L72.1392 34.3896L71.7473 35.982L72.8002 36.0954L79.9962 35.8032L81.3369 35.8805Z" stroke="#268224"/>
<path fill-rule="evenodd" clip-rule="evenodd" d="M81.3369 35.8805L82.3357 35.6151L82.6453 34.4656L82.3924 34.06L80.1245 34.0644L74.5696 34.1086L73.136 33.9877L72.5267 34.0008L72.1392 34.3896L71.7473 35.982L72.8002 36.0954L79.9962 35.8032L81.3369 35.8805Z" stroke="#268224" stroke-width="0.214" stroke-linejoin="bevel"/>
<path fill-rule="evenodd" clip-rule="evenodd" d="M69.6016 39.5146L69.9691 38.2287L70.3965 36.8642L70.9535 35.1615L71.5865 33.4432L71.46 33.2625L71.2756 33.1311L71.1492 32.9199L71.1878 32.6133L71.1971 32.3554L71.0414 32.1903L70.6738 32.0769L70.2919 31.9928L69.9417 32.0015L69.6583 32.2214C69.8738 34.0507 68.9038 34.5653 69.0003 36.3004C69.1405 37.8374 69.0664 37.5957 68.634 39.1103C68.2116 40.3731 68.0365 41.6977 67.5767 42.9543C67.3169 44.5767 68.2371 43.9992 69.1617 43.7412L69.0776 42.6771L69.1455 41.6105L69.3349 40.5557L69.6016 39.5146Z" stroke="#268224"/>
<path fill-rule="evenodd" clip-rule="evenodd" d="M69.6016 39.5146L69.9691 38.2287L70.3965 36.8642L70.9535 35.1615L71.5865 33.4432L71.46 33.2625L71.2756 33.1311L71.1492 32.9199L71.1878 32.6133L71.1971 32.3554L71.0414 32.1903L70.6738 32.0769L70.2919 31.9928L69.9417 32.0015L69.6583 32.2214C69.8738 34.0507 68.9038 34.5653 69.0003 36.3004C69.1405 37.8374 69.0664 37.5957 68.634 39.1103C68.2116 40.3731 68.0365 41.6977 67.5767 42.9543C67.3169 44.5767 68.2371 43.9992 69.1617 43.7412L69.0776 42.6771L69.1455 41.6105L69.3349 40.5557L69.6016 39.5146Z" stroke="#268224" stroke-width="0.214" stroke-linejoin="bevel"/>
<path fill-rule="evenodd" clip-rule="evenodd" d="M67.6844 36.253L68.1604 36.1963L68.6152 35.6381L68.8302 34.8568L68.7561 34.554L68.447 34.2257L63.4036 34.4575L62.1015 34.3796L62.0448 36.1926L67.0789 36.0823L67.6844 36.253Z" stroke="#268224"/>
<path fill-rule="evenodd" clip-rule="evenodd" d="M67.6844 36.253L68.1604 36.1963L68.6152 35.6381L68.8302 34.8568L68.7561 34.554L68.447 34.2257L63.4036 34.4575L62.1015 34.3796L62.0448 36.1926L67.0789 36.0823L67.6844 36.253Z" stroke="#268224" stroke-width="0.214" stroke-linejoin="bevel"/>
<path fill-rule="evenodd" clip-rule="evenodd" d="M67.3593 41.4821L68.0477 39.7769L62.4984 40.003L62.205 40.3905L62.3333 41.2553L63.5588 41.6104L67.3593 41.4821Z" stroke="#268224"/>
<path fill-rule="evenodd" clip-rule="evenodd" d="M67.3593 41.4821L68.0477 39.7769L62.4984 40.003L62.205 40.3905L62.3333 41.2553L63.5588 41.6104L67.3593 41.4821Z" stroke="#268224" stroke-width="0.214" stroke-linejoin="bevel"/>
<path fill-rule="evenodd" clip-rule="evenodd" d="M82.4409 40.484L82.406 39.5713L82.0035 39.2916L80.7444 39.3944L76.0972 39.2822L70.7598 39.5968L70.4065 40.1059L70.2682 40.7794L70.371 41.294L79.2279 41.1476L82.1904 40.8697L82.4409 40.484Z" stroke="#268224"/>
<path fill-rule="evenodd" clip-rule="evenodd" d="M82.4409 40.484L82.406 39.5713L82.0035 39.2916L80.7444 39.3944L76.0972 39.2822L70.7598 39.5968L70.4065 40.1059L70.2682 40.7794L70.371 41.294L79.2279 41.1476L82.1904 40.8697L82.4409 40.484Z" stroke="#268224" stroke-width="0.214" stroke-linejoin="bevel"/>
<path fill-rule="evenodd" clip-rule="evenodd" d="M72.7279 44.6527L73.2731 44.5499L73.9472 44.7026L73.8593 44.9188L73.5248 44.9256L73.2338 44.8409L72.5659 44.9462L72.7279 44.6527Z" stroke="#268224"/>
<path fill-rule="evenodd" clip-rule="evenodd" d="M72.7279 44.6527L73.2731 44.5499L73.9472 44.7026L73.8593 44.9188L73.5248 44.9256L73.2338 44.8409L72.5659 44.9462L72.7279 44.6527Z" stroke="#268224" stroke-width="0.214" stroke-linejoin="bevel"/>
<path d="M108.544 52.0938C110.726 49.3653 112.033 47.9454 112.361 47.6193C112.689 47.2932 114.106 44.9982 118.906 44.7835C123.707 44.5688 125.34 43.5823 125.34 43.5823L141.701 44.5647L150.535 45.7638C150.535 45.7638 158.118 49.815 156.889 57.2914C155.661 64.7677 157.976 72.5986 157.976 72.5986L159.278 78.8131C159.278 78.8131 158.529 90.7943 157.525 93.1602C156.956 94.5031 155.774 90.45 155.651 87.286C155.538 84.3388 152.951 91.9813 152.158 91.3007C150.255 89.6681 150.516 82.1654 150.516 82.1654L147.968 84.7095L147.197 83.3929L144.943 84.2234L142.717 92.99L139.302 92.828C139.302 92.828 141.561 80.7799 137.938 79.7833C134.316 78.7867 125.121 78.0737 125.121 78.0737L122.288 79.7124C122.288 79.7124 121.946 90.3872 123.15 91.7484C123.43 92.0603 116.045 95.2951 117.836 91.1123C120.28 85.4022 117.052 78.4019 117.052 78.4019L110.837 75.2359L108.765 76.2183L108.328 81.0209L104.944 84.6285L104.181 87.7944L100.583 90.847C100.583 90.847 96.3588 93.1703 95.6748 90.5188C94.9907 87.8674 96.2273 81.3491 96.2273 81.3491L94.4827 73.2711L95.2457 72.5075L98.8461 71.3063L101.026 70.3239L106.261 60.6012L108.552 51.6502" stroke="#268224"/>
<path d="M120.785 77.8488C121.111 81.5604 121.907 82.6316 121.049 83.9518C120.191 85.272 120.982 85.6842 120.982 85.6842C120.982 85.6842 120.85 85.2761 121.636 87.0043C122.422 88.7326 121.175 78.0957 121.175 78.0957L120.785 77.8488Z" stroke="#268224"/>
<path d="M109.37 51.97C109.564 51.7959 109.79 51.6587 110.035 51.5655C110.445 51.4016 111.029 51.3207 111.278 51.5655C111.61 51.8932 111.278 53.0381 112.098 52.7104C112.679 52.5466 113.011 51.7293 113.591 51.5655C113.591 50.0949 114.752 49.1947 115.913 48.4584C116.762 47.9635 117.774 47.8181 118.731 48.0538V48.3815C118.321 49.2797 117.244 49.7045 116.99 50.6714C116.409 52.8783 121.297 51.4805 121.467 51.4057C121.716 51.2439 121.964 50.4246 122.13 50.2608C122.792 49.1988 125.28 49.2797 126.437 49.2797C126.767 49.2797 126.847 49.9351 126.767 50.3437C126.685 50.6714 126.437 50.8332 126.357 51.1528C126.689 51.1528 127.104 51.0719 127.188 51.2358C127.352 51.3976 127.27 51.8062 127.27 52.1339C127.68 52.1339 128.181 52.2168 128.597 52.053C129.417 51.6484 130.172 51.0719 131.083 50.989C131.996 50.8251 132.906 50.7442 133.737 50.989C134.557 51.3167 133.819 52.3787 133.239 52.6254C132.492 52.9511 131.663 53.1979 131.167 53.8513C130.587 54.5047 131.001 55.4857 131.001 56.305C131.996 56.1411 132.824 56.6307 133.737 56.7095C134.399 57.6906 134.98 58.6717 135.727 59.6528C136.057 59.9784 136.389 60.5509 136.137 60.9595C135.884 61.3681 135.224 61.532 134.728 61.2872C134.358 61.1756 134.037 60.9457 133.815 60.6338C133.649 60.3061 133.815 59.9784 133.567 59.6528C133.495 59.4824 133.341 59.3592 133.157 59.3251C132.824 59.3251 132.658 59.1612 132.41 59.1612C131.411 59.1611 130.504 58.5865 130.088 57.6906C129.508 56.6266 127.85 56.5457 127.27 57.6906C127.022 58.1801 127.518 58.6717 127.68 59.0803C128.012 60.2252 126.187 63.5771 125.691 62.7598C124.87 62.6769 124.033 62.7598 123.287 62.2683C123.203 63.0046 123.453 63.658 123.783 64.3134C123.949 64.7179 123.701 65.0476 123.287 65.2115C122.54 65.4563 121.794 65.6161 121.049 65.3753C120.469 65.2115 120.136 64.3943 119.97 63.8218C119.638 63.0127 120.218 62.2683 120.551 61.532C120.961 60.7977 119.97 60.8786 119.474 61.0424C118.915 61.2305 118.406 61.5371 117.981 61.9406C117.732 62.1874 117.899 62.513 117.981 62.7497C117.981 63.484 118.313 64.2203 118.313 64.9566C118.313 65.0375 118.479 65.1205 118.479 65.2014C118.479 65.4461 118.561 65.7738 118.479 66.0105C118.395 66.3382 117.981 66.583 118.229 66.7468C118.975 67.4002 120.052 67.4831 120.633 68.3004C120.883 68.5451 120.633 69.0367 120.717 69.4453C120.965 70.0177 121.627 70.1816 121.878 70.7541C121.96 71.0797 121.878 71.4883 121.545 71.4883C120.136 71.6522 118.893 70.9988 117.648 70.4264C116.904 70.0218 116.986 69.1176 116.986 68.3813C117.068 67.9767 116.405 67.8917 116.323 68.1365C116.073 68.4642 116.323 69.0367 116.157 69.4453C116.157 69.5262 115.659 69.5262 115.659 69.4453C115.249 68.709 115.162 67.8917 114.914 67.0745C114.83 66.8277 114.25 66.583 114.25 66.1744C114.084 65.3652 114.002 64.5399 113.429 63.8845C113.263 63.7207 113.181 63.8845 113.019 63.8036C113.019 64.6127 112.937 65.4381 113.019 66.2573C113.185 66.9107 113.682 67.3193 113.839 67.9727C113.673 67.9727 113.429 68.0556 113.343 67.9727C112.845 67.4831 112.845 66.7468 112.679 66.0935C112.679 65.8467 112.268 65.6889 112.016 65.4381C111.85 65.1933 112.016 64.9485 111.932 64.8656C111.522 64.6208 111.112 64.8656 110.855 65.1933C110.689 65.521 110.275 65.7658 110.523 66.1744C111.103 67.0745 111.269 68.0556 112.098 68.7899C112.348 69.0367 112.264 69.5262 112.508 69.8539C112.674 70.0177 112.759 70.1816 112.919 70.3434C113.015 70.5605 112.983 70.8123 112.834 70.9988H112.586C112.325 70.7281 112.151 70.3864 112.088 70.0177C111.922 68.9537 110.763 68.6281 109.85 68.2194C109.602 68.0556 109.518 67.7279 109.44 67.4831C108.941 67.647 108.363 68.0556 108.197 68.6281C108.113 68.7899 107.787 68.709 107.616 68.709C107.616 69.0367 107.532 69.3623 107.616 69.6091C108.309 70.9199 109.143 72.1535 110.102 73.2887C110.269 73.5334 110.02 73.7782 109.854 73.8591C108.445 74.1868 107.036 73.7782 105.627 74.0229C105.217 74.1059 105.295 74.5145 105.129 74.7593C105.046 75.004 104.632 75.1638 104.382 75.2508C103.719 75.4956 102.973 75.2508 102.31 75.1679H102.721C102.388 75.1679 102.058 75.2508 101.808 75.087C101.726 75.004 101.892 74.6824 101.808 74.5145C101.398 74.1099 100.731 73.8591 100.233 73.6143C99.6542 73.3696 99.0737 72.961 98.4092 72.961C98.3271 72.961 98.161 72.7162 98.2431 72.6333C98.9076 72.0608 99.8183 72.0608 100.399 71.4074C100.565 71.1627 100.897 71.0029 100.979 70.7541C101.311 70.0987 100.979 69.3623 101.389 68.7899C101.722 68.3004 107.276 55.4635 107.524 54.8101C107.856 53.9099 107.608 52.848 108.271 52.1116C108.459 51.8891 109.122 52.2168 109.37 51.97Z" stroke="#268224"/>
<path d="M145.038 45.4721C143.951 45.4721 142.721 45.8862 141.978 46.7269C141.813 46.9775 141.729 47.3957 142.06 47.5552C144.293 48.81 145.335 47.2218 147.271 48.6443C148.761 49.7314 149.009 49.4726 149.256 49.8142C149.506 49.9819 149.256 50.1497 149.422 50.4851C149.506 50.5679 149.672 51.4045 149.754 51.4894C149.754 52.2431 149.256 51.6571 150.085 52.3176C150.333 52.4853 150.58 52.5681 150.58 52.7317C150.58 53.9865 149.919 55.8377 151.244 56.6659C152.236 56.4154 153.311 56.8336 154.303 56.3305C154.221 54.4048 154.551 52.4812 154.138 50.4727C154.138 50.0586 153.972 49.8018 153.728 49.3835C153.481 49.133 153.562 48.6319 153.728 48.2116C153.894 47.7105 154.547 48.2116 154.805 47.8782C154.943 47.6621 154.954 47.3871 154.833 47.1605C154.713 46.934 154.48 46.7916 154.226 46.789C153.481 46.6234 152.901 46.2031 152.156 46.2031C150.834 46.2031 149.592 45.8697 148.268 45.6171C147.77 45.5342 147.273 45.702 146.778 45.6171C146.53 45.5342 146.28 45.5342 146.033 45.4514L145.038 45.4721Z" stroke="#268224"/>
<path d="M153.586 57.9509C153.287 57.8339 152.959 57.988 152.814 58.3135C152.658 58.7612 152.658 59.2088 152.581 59.6699C152.346 60.4847 152.425 61.3889 152.502 62.2932C152.581 62.8371 153.273 63.1885 153.36 62.564C153.67 61.1181 153.516 59.6699 153.67 58.2217" stroke="#268224"/>
<path d="M151.192 64.1673C151.409 64.0778 151.571 64.2568 151.788 64.2568C151.788 64.6192 151.842 65.0712 151.733 65.2524C151.679 65.4336 151.354 65.4336 151.246 65.2524C151.138 65.1607 151.192 64.7087 151.192 64.438" stroke="#268224"/>
<path d="M155.386 48.2881C155.209 48.2881 154.949 48.3717 154.767 48.2881C154.416 48.119 153.893 47.9498 153.797 48.2881C153.602 48.755 153.634 49.2807 153.884 49.7228C154.322 50.3138 154.945 50.5582 155.476 51.0719C155.563 51.1575 155.563 51.4102 155.651 51.4896C155.74 53.4297 155.386 55.2862 155.651 57.2284C155.74 57.8194 156.005 58.3248 156.269 58.9158C156.359 59.1706 156.182 59.4233 156.269 59.6759C156.536 60.0936 156.359 60.7744 156.978 61.0271C157.684 58.1577 157.33 55.1191 157.242 52.1641C157.155 50.6438 156.805 48.8729 155.299 47.9435C155.299 48.0333 155.209 48.2025 155.386 48.2881Z" stroke="#268224"/>
<path d="M145.418 50.4356C146.411 50.4356 147.238 50.9273 148.149 51.1751C148.149 52.2416 149.887 51.9877 150.549 52.8165C150.633 52.9811 149.887 54.2122 149.887 54.458C149.969 54.6225 150.219 54.7058 150.297 54.8643C150.379 55.6769 150.131 56.5057 150.297 57.4077C150.534 58.4981 150.476 59.6311 150.131 60.6926C150.131 60.7759 149.883 61.0217 149.799 61.1862C149.582 61.2453 149.382 61.3578 149.22 61.5133C148.559 62.7464 147.814 63.8942 147.318 65.1273C147.234 65.3731 147.4 65.7022 147.234 65.9399C146.739 66.5148 146.905 67.3355 146.325 67.8292C146.26 67.8739 146.18 67.8903 146.103 67.8746C146.025 67.8588 145.958 67.8123 145.916 67.7459C145.668 67.0064 145.998 66.269 145.832 65.5295C145.584 64.6255 145.089 63.9694 144.675 63.1486C144.344 62.5737 144.675 61.9988 145.253 61.753C145.418 61.6697 145.662 61.753 145.832 61.753C145.832 61.9988 145.998 62.2446 145.916 62.4904C146.411 62.4092 147.238 62.7383 147.322 62.1634C147.404 61.1781 147.654 60.2741 147.818 59.3721C147.156 59.2076 146.495 59.2888 145.832 59.1243C145.336 59.043 144.675 59.2076 144.344 58.9597C144.096 58.7139 144.425 57.9745 144.178 57.5641C144.012 57.3996 143.768 57.3996 143.517 57.3183C143.267 57.1537 143.107 56.5788 142.771 56.6621C142.274 56.8267 142.026 57.3996 141.695 57.9745C141.57 58.0561 141.409 58.0561 141.285 57.9745C140.5 57.3664 139.875 56.5779 139.465 55.6769C139.299 55.429 139.299 54.9374 139.465 54.7729C140.955 53.296 142.362 51.8983 144.174 50.9963C144.421 50.8318 144.671 50.913 144.919 50.6672H145.248" stroke="#268224"/>
<path d="M97.9762 72.7415C98.0638 73.3262 97.8907 73.7435 97.7175 74.2455C97.29 75.1627 97.632 76.1647 97.5444 77.084C98.0638 77.084 98.5812 76.9166 98.9275 77.1666C99.1006 77.2513 99.4448 77.5013 99.4448 77.7512C99.4448 78.5879 99.5324 79.5051 99.3593 80.3397C99.2716 80.9244 98.7543 81.4264 98.5812 82.011C98.4956 82.8374 98.6667 83.6802 98.5812 84.5148C98.4956 84.928 97.8907 85.1842 97.803 85.6015C97.632 87.1033 97.8907 88.6073 97.3755 90.0265C97.2023 90.5265 96.3387 90.1939 95.8214 90.2765V82.1763C94.9663 80.9244 95.0433 79.2552 95.2164 77.7512C95.3896 76.4993 95.3019 75.2474 95.1288 73.9108C95.1288 73.8282 95.3019 73.8282 95.3019 73.6608C95.5606 73.7435 95.9069 73.5761 96.08 73.4935C96.5974 72.9936 97.0313 72.3242 97.8073 72.2416V72.4089" stroke="#268224"/>
<path d="M126.282 42.9593L127.289 43.531V43.6012H128.033C130.297 43.2441 150.059 44.8368 151.332 45.8076L151.801 46.3372C145.356 44.6643 136.775 44.5881 129.845 44.2591L127.078 44.1749L127.279 44.1107C127.303 44.0485 127.326 43.9843 127.348 43.9101H127.279V43.9743C124.602 43.7536 111.006 46.965 111.006 49.1896H110.883L110.816 48.989L110.748 48.9248C110.726 48.8827 110.704 48.8425 110.681 48.7984C111.308 46.8567 116.12 44.5359 118.177 44.5359L119.788 44.219L124.582 43.1378L126.282 42.9593Z" stroke="#268224"/>
<path d="M153.259 46.6974C160.533 47.6244 156.996 61.912 157.17 66.9303C158.036 70.6138 158.901 74.2973 159.765 77.9807C160.333 81.2321 158.938 85.4264 158.938 89.0231C159.079 90.2812 159.217 91.5434 159.351 92.8015C156.319 91.0769 158.833 81.4926 158.88 78.7764C158.94 75.3534 157.085 70.8178 156.579 67.3059C155.934 62.8328 159.306 48.1333 153.187 47.4446L152.424 47.1458C152.703 46.9882 152.98 46.8408 153.259 46.6974Z" stroke="#268224"/>
<path d="M153.047 47.9435L153.765 48.2017C154.049 48.4558 155.746 52.1329 155.047 52.1329C154.876 54.1534 154.711 56.1732 154.552 58.1923C154.456 60.6003 154.361 63.007 154.265 65.4123L154.624 69.4086L154.767 69.5366C155.171 71.9026 155.27 74.1792 155.27 76.6916H155.197L155.054 76.5615C154.789 77.7811 155.054 78.458 155.054 79.6552H155.126V79.5922C155.596 80.015 155.842 84.1027 155.842 84.1027V83.8446L156.056 83.6515C156.404 83.9808 157.338 87.9709 157.338 87.9709V87.9059C157.362 89.2813 157.386 90.6561 157.408 92.0302H157.195L156.928 92.4164L156.641 92.2863C156.449 92.8249 156.259 93.3616 156.067 93.8982L156.139 93.9632C155.996 94.197 155.853 94.4348 155.712 94.6706H155.426L155.212 94.2844C155.443 91.9875 155.785 89.784 155.785 87.2595H155.714V87.3875C155.144 88.8063 154.571 90.2245 153.994 91.6419C154.02 91.707 154.043 91.77 154.067 91.835C153.827 92.394 153.59 92.953 153.349 93.512H153.278C154.041 90.463 154.28 87.0338 154.28 83.7795H154.353C154.705 81.7469 153.517 79.9419 153.408 77.962C153.579 69.46 153.751 60.9574 153.923 52.454C153.828 51.2344 153.732 50.0101 153.637 48.781C153.432 48.5005 153.242 48.2322 153.047 47.9435Z" stroke="#268224"/>
<path d="M153.67 47.9435L154.293 48.5666H154.214L153.67 47.9435Z" stroke="#268224"/>
<path d="M110.608 49.1896H110.681L107.87 56.2868C106.732 58.5557 103.325 67.8614 102.678 67.8614L102.389 68.6298C102.293 68.7992 102.198 68.9706 102.101 69.1421C102.028 69.2469 101.957 69.3559 101.886 69.4607H101.815C101.789 69.4184 101.768 69.376 101.742 69.3337L101.097 70.4833V70.5478H100.953V70.1646C100.927 70.2291 100.905 70.2917 100.879 70.3663V70.4308H100.735V70.3663C100.759 70.3017 100.785 70.2392 100.808 70.1646H100.735L100.09 70.9955C100.116 70.931 100.139 70.8685 100.163 70.8039L100.593 69.3922L103.678 63.507C105.652 59.1588 106.786 52.5778 110.608 49.1896Z" stroke="#268224"/>
<path d="M148.161 49.8126C149.329 50.28 149.309 52.3047 149.309 52.3047C148.911 51.9864 147.654 50.2719 148.197 50.3747L148.484 50.3888H148.54C148.417 50.1954 148.291 50.004 148.161 49.8126Z" stroke="#268224"/>
<path d="M149.932 54.1738C151.766 54.8146 151.731 66.8195 151.731 69.4453C151.686 70.1063 151.639 70.7667 151.593 71.4263H151.663C151.708 71.8536 151.756 72.2808 151.801 72.706H151.731V72.1941H151.593V72.2586H151.525C151.593 72.7685 151.663 73.2804 151.731 73.7922L151.386 74.1106H151.316C150.856 67.467 150.395 60.8214 149.932 54.1738Z" stroke="#268224"/>
<path d="M149.558 61.0271L149.966 61.0921C150.107 62.6354 146.198 71.2457 145.665 73.841C145.034 76.8993 146.338 80.3271 146.338 83.0483C146.455 83.2027 146.51 83.16 146.922 83.2027C147.031 83.7124 147.482 85.2009 147.843 85.0445C148.313 84.8414 148.209 83.6921 148.392 83.0483C151.212 82.963 151.54 77.5653 151.54 74.4198H151.608C151.812 75.0412 152.016 75.6666 152.22 76.288L151.812 77.8334C151.605 79.7423 151.401 81.6525 151.199 83.5641C151.224 83.6271 151.246 83.6921 151.267 83.757V84.1429L151.063 84.2079C151.193 85.1521 150.722 90.8402 152.288 90.8402L152.22 90.9682L152.357 91.0981C152.379 91.1611 152.404 91.2261 152.424 91.3012L152.357 91.2362H152.22L151.608 92.2678C151.495 91.9023 151.381 91.5388 151.265 91.1712C151.242 91.1936 151.222 91.2159 151.197 91.2362L150.444 90.0767L150.377 86.728L150.307 86.665C150.426 85.2171 150.358 83.5316 149.83 83.5093C149.595 83.6941 149.299 83.5255 149.025 83.6636C148.927 84.019 148.594 84.941 148.209 85.3979C146.861 85.938 147.08 83.9601 146.122 84.0759C145.287 84.1713 143.607 90.7143 143.346 91.815L142.582 93.5553C142.743 93.9838 142.903 94.4143 143.062 94.8428L142.378 94.5199H142.309V94.5849L142.241 95.2936L141.833 94.392V94.327L142.313 94.4569V94.392C140.432 90.1924 145.734 85.1989 145.734 81.3202H145.597L145.393 81.3851C145.072 79.6875 144.752 77.9918 144.434 76.2982H144.366C144.358 70.5451 146.496 65.3444 149.558 61.0271Z" stroke="#268224"/>
<path d="M156.786 65.3883L156.994 65.6842H156.901L156.795 65.5877L156.786 65.3883Z" stroke="#268224"/>
<path d="M132.168 68.5034C133.343 68.9124 135.453 69.3213 135.453 70.9018C137.586 72.7073 137.852 77.0849 138.403 79.7696L138.869 80.6917C138.535 82.1128 140.924 94.0475 137.328 94.0475C138.267 90.2853 140.009 84.6972 137.698 80.8778C137.444 80.4586 126.042 78.3874 124.737 78.5346C123.432 78.6818 123.214 79.1705 122.434 80.019L122.182 80.3687H122.112V80.1744C122.134 80.1519 122.158 80.1315 122.178 80.109H122.112V80.1744C121.738 83.0554 121.492 85.9097 122.09 88.8684C122.43 89.7926 122.769 90.7181 123.108 91.645C123.172 92.4629 122.308 91.9742 122.308 91.9742C121.872 90.498 121.47 85.3883 120.909 79.3974C121.059 77.5736 121.151 78.2811 120.829 76.7107C120.429 74.7131 118.386 72.0571 118.158 71.6154H118.224V71.55H118.56L119.899 73.3023L120.033 73.4965C120.057 73.4536 120.081 73.4106 120.101 73.3657C120.145 73.5599 120.191 73.7562 120.235 73.9504H120.313C120.335 73.885 120.359 73.8196 120.379 73.7562H120.447L121.183 74.662V74.7274H121.25L121.384 74.7928C121.45 74.8992 121.518 75.0096 121.584 75.1159H121.65V75.0525L124.009 77.0154C125.761 77.9519 128.37 78.3587 130.563 78.3587V78.2933C130.587 78.2708 130.611 78.2504 130.631 78.2279H130.765V78.2933C132.836 78.0296 133.745 79.6551 135.657 79.6551L136.126 79.5263L136.662 79.3218C136.462 78.4385 134.589 74.8358 135.605 76.0646C135.822 76.0053 136.042 75.9481 136.26 75.8867H136.326V76.0156H136.526V76.081H136.592C135.247 71.3639 135.613 72.2595 132.38 69.1291C132.308 68.9267 132.24 68.7161 132.168 68.5034Z" stroke="#268224"/>
<path d="M153.67 69.1265C153.739 69.318 153.811 69.5096 153.879 69.7012V69.7495H153.982C153.879 69.5398 153.773 69.3346 153.67 69.1265Z" stroke="#268224"/>
<path d="M101.492 69.7495C101.441 69.9561 101.39 70.1659 101.336 70.3725V70.2676C101.441 70.1299 101.545 69.9921 101.648 69.8511L101.569 69.7495H101.492Z" stroke="#268224"/>
<path d="M130.9 69.7495L131.864 69.8737V69.9999H131.805V70.061L129.995 69.9999L130.9 69.7495Z" stroke="#268224"/>
<path d="M99.9408 70.9955L100.503 71.122L100.713 71.3769V71.5033L96.6338 73.3499C96.4471 73.2435 95.7085 73.1391 95.5196 73.0307C95.3245 73.6008 93.7612 73.7954 95.1671 74.0504H95.1146C95.4567 76.3304 95.058 78.5723 95.4525 80.9789C96.0631 82.0848 96.126 82.5344 96.7345 83.6403C96.7094 83.6624 96.8038 84.0417 96.7807 84.0557C96.6401 84.0337 96.9318 84.3187 96.7807 84.2966V84.3588H96.7094L96.2897 87.4136L96.0799 87.3514V87.4136L96.2205 87.4779C96.126 88.092 96.0337 88.7102 95.9393 89.3244H95.87C95.8449 89.2602 95.8239 89.1959 95.7987 89.1237C95.7043 89.6094 95.6119 90.0991 95.5175 90.5868C95.6833 91.1167 95.8469 91.6486 96.0106 92.1785C94.1221 91.0866 95.6707 88.1181 95.0957 83.841H95.1146C95.1377 83.4396 95.1839 83.6403 95.2049 83.2389C95.1524 82.8374 93.3059 79.1263 94.7474 79.1263C94.6677 78.5442 94.055 74.1627 94.055 74.1627C93.9606 74.0363 93.3332 73.5606 93.2366 73.4281C93.4737 73.4281 94.2438 73.7814 94.4767 73.7814C92.2127 73.1191 97.043 71.5535 98.3335 71.5535L99.9408 70.9955Z" stroke="#268224"/>
<path d="M153.67 70.9955C153.692 72.5675 153.713 74.1408 153.732 75.7154C153.752 75.8623 153.774 76.0091 153.792 76.156L153.732 76.2175C153.772 76.555 153.813 76.8904 153.853 77.2258V77.1623C154.406 75.3522 154.535 72.6866 153.67 70.9955Z" stroke="#268224"/>
<path d="M151.281 70.9955L151.178 71.2915H151.281V70.9955Z" stroke="#268224"/>
<path d="M152.53 73.4876C152.493 73.5531 152.462 73.6216 152.424 73.6839C152.462 73.6216 152.496 73.5562 152.53 73.4876Z" stroke="#268224"/>
<path d="M115.775 73.4876C116.299 73.7194 119.348 87.5178 119.402 89.2469C119.45 90.7825 118.592 92.2698 118.592 93.4245H118.524C118.48 91.3784 118.435 89.3336 118.39 87.2901H118.324V87.4171C117.987 89.0803 117.654 90.7422 117.323 92.4028L117.055 92.4653C116.965 92.2093 116.877 91.9534 116.787 91.6995H116.719L115.719 91.8909C116.211 90.89 116.702 89.8891 117.193 88.8882C117.871 85.7726 117.707 82.6792 116.253 79.9042C116.253 79.9042 109.983 75.8233 109.309 76.2767C107.908 77.2058 108.458 80.3979 107.982 81.8328C107.81 82.3467 105.606 84.4828 105.606 84.4828L104.867 84.6098H104.451C108.052 80.7808 106.904 80.136 107.952 77.901V77.7721H107.818C107.105 78.9449 106.39 80.1165 105.674 81.2867C105.65 81.2222 104.961 83.1447 104.939 83.0802C105.005 82.782 105.74 80.5007 105.808 80.2004C106.054 79.1747 106.74 77.5806 108.088 77.5806V77.5161C108.4 77.1554 108.364 76.7947 108.677 76.4299V76.4944L109.011 76.3674L108.945 76.3029L108.745 76.176C108.769 76.1115 108.791 76.047 108.813 75.9745C110.371 74.5799 115.787 78.8139 115.787 78.9147H115.855C115.455 77.8923 115.055 76.8699 114.654 75.8475L115.393 76.0389C115.617 76.6556 115.841 77.2763 116.063 77.893V77.9555H116.131C115.864 76.7208 115.597 75.4854 115.331 74.2494H115.399L115.599 74.1869H115.867C115.823 73.9854 115.779 73.802 115.733 73.6106C115.741 73.5763 115.755 73.532 115.775 73.4876Z" stroke="#268224"/>
<path d="M151.281 73.4876L151.178 73.5842V73.6839L151.387 73.5842L151.281 73.4876Z" stroke="#268224"/>
<path d="M100.708 78.3902C100.708 78.3665 100.274 79.7413 100.274 79.7176C99.9037 79.5366 99.7611 77.9743 99.3911 77.7911C99.7528 76.4205 98.3576 74.953 98.3576 75.606L98.6346 75.8107C98.5643 76.2201 98.4961 76.6296 98.4279 77.0412H98.3597C98.3349 76.9959 98.3142 76.9507 98.2894 76.9032L98.1509 77.0412H98.0827V76.9032C98.0579 76.7438 98.0372 76.5843 98.0124 76.4248H97.9442V76.5606L97.5309 77.7221L96.9749 76.9032C97.0885 75.9917 97.2063 75.0823 97.32 74.1708L97.3903 74.1018L98.0104 73.6234H98.1489V73.8281L98.2191 73.8971V73.8281C98.3121 73.7161 98.4052 73.6019 98.4961 73.4876L101.336 75.1276L101.129 75.1944V76.2891C101.175 76.1964 101.222 76.1059 101.268 76.0154" stroke="#268224"/>
<path d="M151.178 74.1107C151.215 74.2072 151.249 74.3069 151.283 74.4222V74.2228L151.49 74.4222L151.178 74.1107Z" stroke="#268224"/>
<path d="M151.178 74.1107L151.387 74.4222H151.284V74.2228L151.178 74.1107Z" stroke="#268224"/>
<path d="M120.65 74.7337C120.752 74.8971 120.858 75.0583 120.96 75.2173C120.997 75.263 121.034 75.311 121.065 75.3567H121.273V75.2173L120.65 74.7337Z" stroke="#268224"/>
<path d="M94.5855 74.7337L94.4827 75.3567C94.517 75.1501 94.5544 74.9403 94.5855 74.7337Z" stroke="#268224"/>
<path d="M121.273 75.3567L121.507 75.6055V75.6682H121.584L121.507 75.4821L121.273 75.3567Z" stroke="#268224"/>
<path d="M122.519 76.6028C122.625 76.7053 122.728 76.8118 122.83 76.9143H123.142L122.519 76.6028Z" stroke="#268224"/>
<path d="M156.162 76.6028C156.318 76.9045 156.474 77.2078 156.63 77.5112L156.681 77.5634C156.715 77.6899 156.751 77.8146 156.785 77.9376H156.689V77.7236H156.637C156.619 77.9376 156.603 78.1516 156.585 78.3657V78.4719H156.533C156.405 77.85 156.285 77.2314 156.162 76.6028Z" stroke="#268224"/>
<path d="M122.519 77.8488C122.556 78.4718 122.592 79.0949 122.625 79.7179C122.591 79.0928 122.559 78.4718 122.519 77.8488Z" stroke="#268224"/>
<path d="M137.472 79.0949C137.506 79.1946 137.543 79.2911 137.574 79.3908H137.68L137.472 79.0949Z" stroke="#268224"/>
<path d="M138.718 80.3409C138.752 80.4464 138.789 80.5519 138.82 80.6525H138.926L138.718 80.3409Z" stroke="#268224"/>
<path d="M143.392 81.587C143.494 81.973 143.6 82.3611 143.702 82.7471V83.4561C142.776 83.4073 143.069 82.1152 143.392 81.587Z" stroke="#268224"/>
<path d="M150.764 81.587C150.695 82.2128 150.626 82.8359 150.555 83.4561C150.621 82.8331 150.695 82.2121 150.764 81.587Z" stroke="#268224"/>
<path d="M154.399 81.587C154.362 81.6213 154.331 81.6555 154.293 81.6867V81.7833L154.502 81.6867L154.399 81.587Z" stroke="#268224"/>
<path d="M151.409 83.4561C151.539 85.7425 151.67 88.0269 151.801 90.3094L151.655 90.2459C151.232 88.4736 150.961 85.3612 151.409 83.4561Z" stroke="#268224"/>
<path d="M154.605 84.0791C154.502 84.636 154.396 85.1952 154.293 85.7521C154.362 86.6489 154.431 87.545 154.502 88.4403C154.539 86.9873 154.574 85.5336 154.605 84.0791Z" stroke="#268224"/>
<path d="M154.916 84.0791C154.937 84.4763 154.959 84.8734 154.978 85.2723C155.062 85.2911 155.146 85.3098 155.228 85.3252C155.126 84.9104 155.022 84.495 154.916 84.0791Z" stroke="#268224"/>
<path d="M104.911 84.7021C107.716 86.1418 102.111 89.4931 102.111 90.675C101.675 91.2223 101.584 91.2421 100.955 91.2421V91.1787L100.753 91.5554C100.414 91.3036 100.428 91.0537 100.09 90.8019H100.226L100.497 90.7384V90.675C102.67 89.8976 104.281 86.6574 104.911 84.7021Z" stroke="#268224"/>
<path d="M155.539 87.1942C155.608 87.4024 155.68 87.609 155.748 87.8172C155.68 87.609 155.611 87.4024 155.539 87.1942Z" stroke="#268224"/>
<path d="M150.555 89.0634C150.639 89.2704 150.723 89.4793 150.805 89.6864H150.867V89.6293C150.764 89.44 150.656 89.2526 150.555 89.0634Z" stroke="#268224"/>
<path d="M165.799 93.7612C166.752 93.116 165.263 92.9083 164.909 92.7954C164.861 93.1435 164.967 93.495 165.198 93.7612H160.93C161.124 93.0811 161.315 92.4009 161.505 91.7207L161.233 91.6582C160.737 92.253 160.306 93.0091 160.719 93.7612H147.666C147.666 93.0797 147.666 92.4466 147.479 93.1281C147.415 93.3334 147.38 93.5465 147.375 93.7612H145.749C145.873 93.459 145.903 93.1267 145.835 92.8075C145.814 92.8297 145.79 92.8499 145.767 92.872L145.631 92.8075C145.353 93.099 145.105 93.4187 144.894 93.7612H144.215L136.143 93.12C135.94 92.3135 135.468 91.2167 135.344 91.0816L135.869 93.0979L133.45 92.9063L133.505 92.745L133.302 92.872V92.8942L133.178 92.8821L132.694 92.4789C132.729 92.5998 132.763 92.7228 132.796 92.8438L131.597 92.749L131.469 92.0958C131.495 92.3115 131.52 92.5273 131.546 92.745L127.803 92.4466C127.823 91.9123 127.803 91.4748 127.313 91.0715C127.394 91.5232 127.473 91.9768 127.555 92.4285H127.502L127.063 92.5494C127.077 92.5051 127.093 92.4627 127.11 92.4184L127.026 92.5595L126.606 92.6704C126.734 91.8437 127.093 90.9667 126.427 90.3094C126.303 91.0332 126.037 91.9647 126.059 92.8055C125.856 92.8579 125.618 92.9124 125.376 92.9668L125.815 91.9708H125.338L125.134 92.1623C125.228 92.376 125.315 92.5877 125.407 92.8015C125.386 92.8458 125.364 92.8882 125.34 92.9305L125.281 92.989C122.551 93.5939 118.371 94.2491 119.05 92.2793C119.223 91.7832 114.819 91.6361 114.819 91.6361L113.793 91.6542C113.736 91.3114 113.609 90.9839 113.419 90.6924C113.433 91.015 113.445 91.3377 113.459 91.6603L111.685 91.6905C111.529 91.4132 111.305 91.18 111.033 91.013C111.145 91.2409 111.254 91.4667 111.364 91.6945L110.094 91.7167L109.807 91.1461C109.846 91.3477 109.883 91.5332 109.921 91.7268L105.135 91.8074C105.135 91.7792 105.117 91.751 105.107 91.7207L105.032 91.8095L95.7627 91.9687L88.8755 92.8176C88.8755 92.8176 96.5431 94.7653 96.9576 94.6101C97.3722 94.4548 103.82 94.2512 103.82 94.2512L107.669 96.0658L123.206 96.5396L132.816 95.5617L140.945 96.5396L168 93.7693L165.799 93.7612Z" stroke="#268224"/>
<path d="M134.828 91.5136H134.98L134.357 90.9324L134.668 91.5555L134.828 91.5136Z" stroke="#268224"/>
<path d="M160.014 92.8015C160.184 92.3867 160.353 91.9702 160.524 91.5555C160.055 91.9276 159.777 92.2382 159.955 92.8015H160.014Z" stroke="#268224"/>
<path d="M163.003 92.3953C163.116 91.6658 162.433 92.9738 162.393 93.4245C162.444 93.2191 162.896 93.087 163.003 92.3953Z" stroke="#268224"/>
<path d="M162.42 92.9604C162.398 92.9105 162.392 92.8548 162.404 92.8015C162.385 92.8541 162.39 92.9126 162.42 92.9604Z" stroke="#268224"/>
<path d="M64.5644 44.1152C63.3058 42.5464 62.5515 41.7299 62.3624 41.5424C62.1732 41.3549 61.3559 40.0353 58.5864 39.9118C55.8168 39.7884 54.8746 39.2212 54.8746 39.2212L45.4358 39.786L40.3392 40.4755C40.3392 40.4755 35.9643 42.805 36.673 47.1039C37.3817 51.4028 36.046 55.9055 36.046 55.9055L35.2952 59.4788C35.2952 59.4788 35.7272 66.3681 36.3064 67.7284C36.6345 68.5006 37.3163 66.1701 37.3876 64.3508C37.4529 62.6561 38.9451 67.0506 39.4028 66.6592C40.5004 65.7205 40.3497 61.4064 40.3497 61.4064L41.8197 62.8693L42.2646 62.1122L43.5653 62.5898L44.8496 67.6306L46.8194 67.5374C46.8194 67.5374 45.5163 60.6098 47.6063 60.0367C49.6963 59.4637 55.0007 59.0537 55.0007 59.0537L56.6353 59.996C56.6353 59.996 56.8326 66.134 56.1379 66.9166C55.9768 67.096 60.2373 68.956 59.204 66.5509C57.7936 63.2676 59.6559 59.2424 59.6559 59.2424L63.2416 57.422L64.4372 57.9869L64.6894 60.7484L66.6416 62.8227L67.0818 64.6431L69.1578 66.3983C69.1578 66.3983 71.5945 67.7343 71.9892 66.2097C72.3838 64.6851 71.6704 60.937 71.6704 60.937L72.6769 56.2922L72.2367 55.8531L70.1596 55.1624L68.9021 54.5976L65.8815 49.007L64.5598 43.8602" stroke="#268224"/>
<path d="M57.6569 58.535C57.4935 60.762 57.0956 61.4047 57.5245 62.1968C57.9535 62.9889 57.558 63.2362 57.558 63.2362C57.558 63.2362 57.6242 62.9914 57.2312 64.0283C56.8382 65.0653 57.4616 58.6831 57.4616 58.6831L57.6569 58.535Z" stroke="#268224"/>
<path d="M63.7876 44.001C63.6761 43.9021 63.5468 43.8242 63.4063 43.7712C63.1709 43.6781 62.8355 43.6321 62.6931 43.7712C62.5024 43.9574 62.6931 44.6079 62.2224 44.4217C61.8893 44.3286 61.6987 43.8643 61.3656 43.7712C61.3656 42.9356 60.6995 42.4242 60.0334 42.0058C59.5463 41.7246 58.9654 41.642 58.4164 41.7759V41.9621C58.6518 42.4724 59.2696 42.7138 59.4156 43.2632C59.7486 44.5171 56.9442 43.7229 56.8465 43.6804C56.7041 43.5884 56.5617 43.123 56.4664 43.0299C56.0863 42.4265 54.6587 42.4724 53.995 42.4724C53.8055 42.4724 53.7596 42.8448 53.8055 43.077C53.8526 43.2632 53.995 43.3551 54.0409 43.5367C53.8502 43.5367 53.6125 43.4907 53.5643 43.5838C53.4701 43.6758 53.5172 43.9079 53.5172 44.0941C53.2818 44.0941 52.9947 44.1413 52.7558 44.0482C52.285 43.8183 51.852 43.4907 51.3294 43.4436C50.8057 43.3505 50.2832 43.3045 49.8066 43.4436C49.3359 43.6298 49.7595 44.2332 50.0926 44.3734C50.5209 44.5585 50.9964 44.6987 51.2812 45.0699C51.6142 45.4412 51.3765 45.9986 51.3765 46.4641C50.8057 46.371 50.3303 46.6491 49.8066 46.6939C49.4265 47.2514 49.0934 47.8088 48.665 48.3662C48.4756 48.5513 48.2849 48.8765 48.4297 49.1087C48.5744 49.3409 48.9534 49.434 49.2382 49.2949C49.4502 49.2315 49.6344 49.1008 49.7619 48.9236C49.8572 48.7375 49.7619 48.5513 49.9043 48.3662C49.9456 48.2694 50.0341 48.1994 50.1396 48.18C50.3303 48.18 50.4256 48.0869 50.568 48.0869C51.1412 48.0869 51.6617 47.7604 51.9002 47.2514C52.2333 46.6468 53.1842 46.6008 53.5172 47.2514C53.6596 47.5295 53.3748 47.8088 53.2818 48.041C53.0912 48.6915 54.1386 50.5959 54.4234 50.1316C54.8941 50.0845 55.3743 50.1316 55.8026 49.8523C55.8509 50.2707 55.7073 50.6419 55.5178 51.0143C55.4225 51.2442 55.5649 51.4315 55.8026 51.5246C56.231 51.6637 56.6594 51.7545 57.0866 51.6177C57.4196 51.5246 57.6103 51.0603 57.7056 50.735C57.8963 50.2753 57.5632 49.8523 57.3726 49.434C57.1372 49.0167 57.7056 49.0627 57.9904 49.1558C58.3108 49.2627 58.6032 49.4369 58.8472 49.6661C58.9895 49.8063 58.8942 49.9914 58.8472 50.1259C58.8472 50.5431 58.6565 50.9614 58.6565 51.3798C58.6565 51.4258 58.5612 51.4729 58.5612 51.5188C58.5612 51.6579 58.5141 51.8441 58.5612 51.9786C58.6094 52.1648 58.8472 52.3038 58.7048 52.3969C58.2764 52.7682 57.6585 52.8153 57.3255 53.2796C57.1819 53.4187 57.3255 53.698 57.2772 53.9302C57.1348 54.2554 56.7547 54.3485 56.6111 54.6738C56.5641 54.8588 56.6111 55.091 56.8018 55.091C57.6103 55.1841 58.3235 54.8128 59.0378 54.4876C59.465 54.2577 59.4179 53.744 59.4179 53.3256C59.3708 53.0957 59.751 53.0475 59.798 53.1865C59.9416 53.3727 59.798 53.698 59.8934 53.9302C59.8934 53.9761 60.1793 53.9761 60.1793 53.9302C60.4147 53.5118 60.4641 53.0475 60.6065 52.5831C60.6548 52.4429 60.9878 52.3038 60.9878 52.0717C61.0832 51.6119 61.1302 51.143 61.4586 50.7706C61.5539 50.6775 61.601 50.7706 61.6939 50.7247C61.6939 51.1844 61.741 51.6533 61.6939 52.1188C61.5986 52.49 61.3138 52.7222 61.2232 53.0934C61.3185 53.0934 61.4586 53.1406 61.508 53.0934C61.794 52.8153 61.794 52.3969 61.8893 52.0257C61.8893 51.8855 62.1247 51.7958 62.2694 51.6533C62.3648 51.5142 62.2694 51.3752 62.3177 51.3281C62.5531 51.189 62.7884 51.3281 62.9355 51.5142C63.0309 51.7004 63.2686 51.8395 63.1262 52.0717C62.7931 52.5831 62.6978 53.1406 62.2224 53.5578C62.0788 53.698 62.127 53.9761 61.987 54.1623C61.8917 54.2554 61.8434 54.3485 61.7516 54.4405C61.6962 54.5638 61.7148 54.7069 61.7999 54.8128H61.9423C62.0923 54.659 62.1919 54.4649 62.2282 54.2554C62.3236 53.6509 62.9885 53.4658 63.5122 53.2337C63.6546 53.1406 63.7028 52.9544 63.7476 52.8153C64.0335 52.9084 64.3654 53.1406 64.4607 53.4658C64.509 53.5578 64.6961 53.5118 64.7938 53.5118C64.7938 53.698 64.842 53.883 64.7938 54.0232C64.3963 54.768 63.9181 55.4689 63.3674 56.1139C63.2721 56.253 63.4145 56.392 63.5098 56.438C64.3183 56.6242 65.1268 56.392 65.9353 56.5311C66.1707 56.5782 66.126 56.8104 66.2213 56.9495C66.2684 57.0885 66.5061 57.1793 66.6497 57.2287C67.0298 57.3678 67.4582 57.2287 67.8383 57.1816H67.6029C67.7936 57.1816 67.983 57.2287 68.1266 57.1356C68.1737 57.0885 68.0784 56.9058 68.1266 56.8104C68.362 56.5805 68.7445 56.438 69.0304 56.2989C69.3623 56.1599 69.6954 55.9277 70.0766 55.9277C70.1237 55.9277 70.219 55.7886 70.172 55.7415C69.7907 55.4162 69.2682 55.4162 68.9351 55.045C68.8398 54.9059 68.6491 54.8151 68.6021 54.6738C68.4114 54.3014 68.6021 53.883 68.3667 53.5578C68.176 53.2796 64.9891 45.9859 64.8467 45.6147C64.6561 45.1033 64.7985 44.4999 64.4184 44.0815C64.3101 43.9551 63.93 44.1413 63.7876 44.001Z" stroke="#268224"/>
<path d="M43.432 39.8557C44.053 39.8557 44.7559 40.0857 45.1804 40.5528C45.2752 40.692 45.3231 40.9244 45.1336 41.0129C43.8577 41.71 43.2624 40.8277 42.1561 41.618C41.3047 42.2219 41.1632 42.0781 41.0216 42.268C40.879 42.3611 41.0216 42.4543 40.9269 42.6407C40.879 42.6867 40.7842 43.1514 40.7374 43.1986C40.7374 43.6173 41.0216 43.2918 40.548 43.6587C40.4065 43.7519 40.265 43.7979 40.265 43.8888C40.265 44.5859 40.6427 45.6143 39.886 46.0745C39.3188 45.9353 38.7048 46.1676 38.1376 45.8881C38.1844 44.8183 37.9961 43.7496 38.2324 42.6338C38.2324 42.4037 38.3271 42.2611 38.4663 42.0287C38.6078 41.8895 38.561 41.6111 38.4663 41.3776C38.3715 41.0992 37.9984 41.3776 37.8511 41.1924C37.7722 41.0723 37.766 40.9196 37.8349 40.7937C37.9037 40.6678 38.0367 40.5887 38.1821 40.5873C38.6078 40.4953 38.9387 40.2618 39.3644 40.2618C40.1199 40.2618 40.8298 40.0765 41.5865 39.9362C41.8707 39.8902 42.1549 39.9834 42.4379 39.9362C42.5794 39.8902 42.7221 39.8902 42.8636 39.8442L43.432 39.8557Z" stroke="#268224"/>
<path d="M38.4528 47.3449C38.6023 47.2717 38.7661 47.368 38.8384 47.5715C38.9165 47.8513 38.9165 48.1311 38.9551 48.4193C39.0727 48.9285 39.0331 49.4936 38.9946 50.0588C38.9551 50.3987 38.609 50.6184 38.5656 50.2281C38.4104 49.3244 38.4875 48.4193 38.4104 47.5141" stroke="#268224"/>
<path d="M40.2662 50.4482C40.0491 50.4035 39.8869 50.4929 39.6697 50.4929C39.6697 50.6742 39.6161 50.9001 39.7247 50.9907C39.7783 51.0813 40.104 51.0813 40.2113 50.9907C40.3199 50.9449 40.2662 50.7189 40.2662 50.5836" stroke="#268224"/>
<path d="M37.5524 41.9102C37.641 41.9102 37.771 41.9579 37.8618 41.9102C38.0378 41.8135 38.299 41.7168 38.3471 41.9102C38.4447 42.177 38.4287 42.4773 38.3034 42.73C38.0848 43.0677 37.7732 43.2073 37.5076 43.5009C37.4639 43.5498 37.4639 43.6942 37.4202 43.7396C37.3753 44.8482 37.5524 45.9091 37.4202 47.0189C37.3753 47.3566 37.2431 47.6454 37.1108 47.9831C37.066 48.1287 37.1545 48.2731 37.1108 48.4175C36.9775 48.6562 37.066 49.0452 36.7566 49.1896C36.4036 47.5499 36.5807 45.8136 36.6244 44.125C36.6681 43.2563 36.843 42.2443 37.5961 41.7133C37.5961 41.7646 37.641 41.8612 37.5524 41.9102Z" stroke="#268224"/>
<path d="M43.1332 42.9593C42.5816 42.9593 42.1222 43.2402 41.616 43.3819C41.616 43.9913 40.6505 43.8462 40.2831 44.3198C40.2365 44.4139 40.6505 45.1173 40.6505 45.2578C40.605 45.3518 40.4662 45.3994 40.423 45.49C40.3775 45.9543 40.5151 46.4279 40.423 46.9433C40.2914 47.5664 40.3232 48.2139 40.5151 48.8204C40.5151 48.868 40.6527 49.0085 40.6994 49.1025C40.8203 49.1363 40.931 49.2005 41.0212 49.2894C41.3886 49.994 41.8026 50.6499 42.0778 51.3546C42.1244 51.495 42.0323 51.6831 42.1244 51.8189C42.3997 52.1474 42.3075 52.6164 42.6294 52.8985C42.6654 52.924 42.7102 52.9334 42.7531 52.9244C42.7961 52.9154 42.8336 52.8889 42.8569 52.8509C42.9945 52.4283 42.8114 52.007 42.9035 51.5844C43.0411 51.0678 43.3164 50.6929 43.5461 50.2239C43.7303 49.8954 43.5461 49.5669 43.2254 49.4264C43.1332 49.3788 42.9979 49.4264 42.9035 49.4264C42.9035 49.5669 42.8114 49.7073 42.8569 49.8478C42.5816 49.8013 42.1222 49.9894 42.0755 49.6609C42.03 49.0979 41.8913 48.5813 41.8003 48.0659C42.1677 47.9719 42.535 48.0183 42.9035 47.9243C43.1787 47.8778 43.5461 47.9719 43.7303 47.8302C43.868 47.6898 43.6849 47.2672 43.8225 47.0327C43.9146 46.9387 44.0499 46.9387 44.1898 46.8923C44.3286 46.7982 44.4173 46.4697 44.6038 46.5173C44.8802 46.6113 45.0178 46.9387 45.2021 47.2672C45.271 47.3139 45.3606 47.3139 45.4295 47.2672C45.8659 46.9198 46.2129 46.4692 46.4406 45.9543C46.5327 45.8127 46.5327 45.5318 46.4406 45.4377C45.6126 44.5938 44.8313 43.7951 43.8247 43.2797C43.6871 43.1857 43.5484 43.2321 43.4108 43.0917H43.2276" stroke="#268224"/>
<path d="M70.4135 55.7129C70.3635 56.0556 70.4624 56.3003 70.5613 56.5945C70.8057 57.1322 70.6102 57.7196 70.6603 58.2585C70.3635 58.2585 70.0678 58.1604 69.87 58.3069C69.771 58.3566 69.5743 58.5031 69.5743 58.6496C69.5743 59.1401 69.5243 59.6778 69.6232 60.167C69.6733 60.5098 69.9689 60.804 70.0678 61.1468C70.1167 61.6312 70.019 62.1253 70.0678 62.6145C70.1167 62.8567 70.4624 63.0069 70.5125 63.2515C70.6102 64.1319 70.4624 65.0135 70.7568 65.8455C70.8557 66.1386 71.3492 65.9436 71.6449 65.992V61.2436C72.1335 60.5098 72.0895 59.5313 71.9905 58.6496C71.8916 57.9158 71.9417 57.1819 72.0406 56.3984C72.0406 56.3499 71.9417 56.3499 71.9417 56.2518C71.7939 56.3003 71.596 56.2022 71.497 56.1537C71.2014 55.8607 70.9535 55.4683 70.51 55.4199V55.518" stroke="#268224"/>
<path d="M54.3492 38.5981L53.7693 38.9412V38.9833H53.3414C52.0378 38.769 40.6596 39.7246 39.9266 40.3072L39.6564 40.6249C43.3676 39.6211 48.3081 39.5754 52.2976 39.378L53.8911 39.3275L53.7751 39.289C53.7612 39.2517 53.7484 39.2131 53.7357 39.1686H53.7751V39.2071C55.3164 39.0747 63.1447 41.0016 63.1447 42.3363H63.2154L63.2537 42.216L63.2931 42.1774C63.3059 42.1522 63.3187 42.1281 63.3314 42.1016C62.9707 40.9366 60.2001 39.5441 59.016 39.5441L58.0882 39.354L55.328 38.7053L54.3492 38.5981Z" stroke="#268224"/>
<path d="M38.5465 40.4672C34.3033 40.9933 36.3664 49.1025 36.2652 51.9507C35.7599 54.0414 35.2553 56.132 34.7516 58.2226C34.4202 60.0679 35.2336 62.4485 35.2336 64.4899C35.1517 65.2039 35.0709 65.9203 34.9926 66.6344C36.7617 65.6555 35.2951 60.2158 35.2674 58.6742C35.2324 56.7314 36.3146 54.1571 36.6099 52.1639C36.9859 49.6252 35.0191 41.2822 38.5887 40.8913L39.0334 40.7217C38.8707 40.6323 38.7092 40.5486 38.5465 40.4672Z" stroke="#268224"/>
<path d="M39.0334 41.7133L38.6231 41.8613C38.4607 42.0069 37.4912 44.1151 37.8905 44.1151C37.9882 45.2735 38.0826 46.4316 38.1738 47.5892C38.2283 48.9698 38.2829 50.3496 38.3374 51.7287L38.1323 54.0199L38.0505 54.0933C37.8197 55.4498 37.7635 56.7551 37.7635 58.1955H37.805L37.8868 58.1209C38.0383 58.8201 37.8868 59.2082 37.8868 59.8946H37.8453V59.8585C37.5767 60.1009 37.4363 62.4445 37.4363 62.4445V62.2965L37.3142 62.1858C37.1152 62.3746 36.5816 64.6623 36.5816 64.6623V64.625C36.5677 65.4136 36.5543 66.2018 36.5413 66.9896H36.6634L36.816 67.211L36.9796 67.1364C37.0895 67.4453 37.1982 67.7529 37.3081 68.0606L37.2666 68.0979C37.3484 68.2319 37.4302 68.3682 37.5108 68.5034H37.6744L37.7965 68.282C37.6646 66.9651 37.4693 65.7018 37.4693 64.2544H37.5095V64.3278C37.8352 65.1413 38.1628 65.9543 38.4925 66.767C38.4778 66.8043 38.4644 66.8404 38.451 66.8777C38.5877 67.1982 38.7232 67.5187 38.8612 67.8392H38.9015C38.4656 66.0911 38.3289 64.125 38.3289 62.2592H38.2873C38.0859 61.0938 38.7648 60.059 38.827 58.9239C38.7294 54.0494 38.6313 49.1745 38.5328 44.2993C38.5873 43.6 38.6418 42.8981 38.6964 42.1934C38.8136 42.0326 38.9223 41.8787 39.0334 41.7133Z" stroke="#268224"/>
<path d="M38.4103 41.7133L37.7873 42.3363H37.8664L38.4103 41.7133Z" stroke="#268224"/>
<path d="M63.3745 42.3363H63.3314L64.9852 46.3919C65.6545 47.6884 67.6587 53.0059 68.0396 53.0059L68.2091 53.445C68.2661 53.5418 68.3217 53.6398 68.3787 53.7377C68.4217 53.7977 68.4634 53.8599 68.5052 53.9198H68.5469C68.5621 53.8956 68.5748 53.8714 68.59 53.8472L68.9696 54.5041V54.541H69.0543V54.322C69.0695 54.3589 69.0822 54.3946 69.0973 54.4373V54.4742H69.1821V54.4373C69.1682 54.4004 69.153 54.3647 69.1391 54.322H69.1821L69.5617 54.7969C69.5465 54.76 69.5326 54.7242 69.5187 54.6874L69.2656 53.8806L67.4512 50.5177C66.2897 48.033 65.6229 44.2725 63.3745 42.3363Z" stroke="#268224"/>
<path d="M41.4766 42.3363C40.8927 42.57 40.9025 43.5824 40.9025 43.5824C41.1018 43.4232 41.73 42.566 41.4585 42.6173L41.315 42.6244H41.2871C41.3486 42.5277 41.4118 42.432 41.4766 42.3363Z" stroke="#268224"/>
<path d="M40.9025 44.8284C39.6798 45.1889 39.7032 51.9416 39.7032 53.4187C39.7335 53.7905 39.7643 54.1619 39.7955 54.533H39.7487C39.7184 54.7733 39.6867 55.0136 39.6564 55.2528H39.7032V54.9649H39.7955V55.0011H39.8409C39.7955 55.2879 39.7487 55.5759 39.7032 55.8638L39.9332 56.0429H39.98C40.2866 52.3059 40.5941 48.5677 40.9025 44.8284Z" stroke="#268224"/>
<path d="M40.7194 49.1896L40.4792 49.2262C40.3964 50.0961 42.6961 54.9492 43.0095 56.412C43.3806 58.1357 42.6132 60.0678 42.6132 61.6015C42.5448 61.6885 42.5123 61.6645 42.2698 61.6885C42.2061 61.9758 41.9407 62.8148 41.7282 62.7267C41.452 62.6122 41.5132 61.9644 41.4051 61.6015C39.7467 61.5535 39.5533 58.5111 39.5533 56.7382H39.5137C39.3936 57.0884 39.2735 57.4409 39.1534 57.7912L39.3936 58.6622C39.5153 59.7381 39.6354 60.8148 39.7539 61.8923C39.7395 61.9277 39.7263 61.9644 39.7142 62.001V62.2185L39.8343 62.2551C39.7575 62.7873 40.0349 65.9933 39.1138 65.9933L39.1534 66.0654L39.073 66.1387C39.0598 66.1742 39.0453 66.2108 39.0333 66.2532L39.073 66.2165H39.1534L39.5137 66.798C39.5797 66.592 39.647 66.3871 39.7154 66.1799C39.7287 66.1925 39.7407 66.2051 39.7551 66.2165L40.1982 65.563L40.2378 63.6755L40.2787 63.6401C40.209 62.824 40.2486 61.8739 40.5597 61.8614C40.6978 61.9655 40.8719 61.8705 41.0328 61.9483C41.0905 62.1486 41.2862 62.6683 41.5132 62.9258C42.3058 63.2303 42.1773 62.1155 42.7405 62.1807C43.2317 62.2345 44.22 65.9224 44.3737 66.5427L44.8229 67.5237C44.728 67.7652 44.6343 68.0078 44.5407 68.2493L44.943 68.0673H44.9838V68.104L45.0234 68.5034L45.2636 67.9952V67.9586L44.9814 68.0319V67.9952C46.0874 65.6282 42.9687 62.8137 42.9687 60.6275H43.0491L43.1692 60.6641C43.3582 59.7072 43.5463 58.7515 43.7337 57.7969H43.7733C43.7781 54.5543 42.5208 51.623 40.7194 49.1896Z" stroke="#268224"/>
<path d="M36.5413 51.6817L36.3325 51.9776H36.426L36.5319 51.8811L36.5413 51.6817Z" stroke="#268224"/>
<path d="M50.729 52.9277C50.0375 53.1571 48.7969 53.3865 48.7969 54.2732C47.5421 55.286 47.3857 57.7417 47.0611 59.2478L46.7871 59.7651C46.9835 60.5622 45.5782 67.2574 47.6938 67.2574C47.1411 65.1469 46.1168 62.0121 47.4762 59.8695C47.6256 59.6343 54.3322 58.4724 55.1001 58.555C55.868 58.6376 55.9962 58.9117 56.4548 59.3877L56.603 59.5838H56.6442V59.4749C56.6312 59.4623 56.6171 59.4508 56.6054 59.4382H56.6442V59.4749C56.8641 61.091 57.0087 62.6923 56.6571 64.352C56.4572 64.8704 56.2577 65.3896 56.0585 65.9096C56.0209 66.3684 56.5289 66.0943 56.5289 66.0943C56.7853 65.2661 57.0217 62.3998 57.3521 59.039C57.2639 58.0159 57.2098 58.4127 57.3992 57.5318C57.6344 56.4112 58.8362 54.9212 58.9703 54.6735H58.9315V54.6368H58.7339L57.946 55.6198L57.8672 55.7287C57.8531 55.7047 57.839 55.6806 57.8272 55.6553C57.8013 55.7643 57.7743 55.8744 57.7484 55.9834H57.7026C57.6896 55.9467 57.6755 55.91 57.6638 55.8744H57.6238L57.191 56.3825V56.4192H57.151L57.0722 56.4559C57.0334 56.5156 56.9935 56.5775 56.9546 56.6372H56.9158V56.6016L55.5282 57.7027C54.498 58.2281 52.9634 58.4563 51.6733 58.4563V58.4196C51.6592 58.407 51.6451 58.3955 51.6333 58.3829H51.5545V58.4196C50.3362 58.2717 49.8011 59.1835 48.6769 59.1835L48.4005 59.1113L48.0854 58.9966C48.203 58.5011 49.3049 56.48 48.7075 57.1694C48.5793 57.1361 48.4499 57.104 48.3218 57.0696H48.283V57.1419H48.1654V57.1786H48.1265C48.918 54.5324 48.7028 55.0348 50.6043 53.2787C50.6467 53.1652 50.6867 53.047 50.729 52.9277Z" stroke="#268224"/>
<path d="M38.4103 53.5508C38.3418 53.7424 38.2702 53.934 38.2016 54.1255V54.1738H38.0988C38.2016 53.9641 38.3075 53.759 38.4103 53.5508Z" stroke="#268224"/>
<path d="M68.7829 53.5508C68.834 53.7574 68.8852 53.9672 68.9387 54.1738V54.0689C68.834 53.9312 68.7294 53.7934 68.6271 53.6524L68.7062 53.5508H68.7829Z" stroke="#268224"/>
<path d="M51.5137 53.5508L50.8709 53.675V53.8012H50.9105V53.8623L52.1169 53.8012L51.5137 53.5508Z" stroke="#268224"/>
<path d="M69.3891 54.7968L69.0611 54.8675L68.9387 55.01V55.0806L71.3182 56.1125C71.4271 56.0531 71.858 55.9947 71.9681 55.9342C72.082 56.2527 72.9939 56.3615 72.1738 56.5039H72.2044C72.0048 57.7781 72.2374 59.0309 72.0073 60.3758C71.6511 60.9938 71.6144 61.245 71.2594 61.863C71.2741 61.8754 71.219 62.0873 71.2325 62.0952C71.3145 62.0829 71.1444 62.2421 71.2325 62.2298V62.2646H71.2741L71.5189 63.9717L71.6413 63.9369V63.9717L71.5593 64.0075C71.6144 64.3508 71.6682 64.6962 71.7233 65.0394H71.7637C71.7784 65.0035 71.7906 64.9676 71.8053 64.9273C71.8604 65.1987 71.9143 65.4724 71.9694 65.7449C71.8727 66.041 71.7772 66.3383 71.6817 66.6344C72.7833 66.0242 71.88 64.3653 72.2154 61.9752H72.2044C72.1909 61.7509 72.164 61.863 72.1517 61.6387C72.1823 61.4144 73.2595 59.3405 72.4186 59.3405C72.4651 59.0152 72.8225 56.5668 72.8225 56.5668C72.8776 56.4961 73.2436 56.2303 73.2999 56.1562C73.1616 56.1562 72.7123 56.3536 72.5765 56.3536C73.8972 55.9835 71.0795 55.1087 70.3267 55.1087L69.3891 54.7968Z" stroke="#268224"/>
<path d="M38.4103 54.7968C38.3886 55.74 38.3681 56.684 38.3487 57.6288C38.3288 57.7169 38.3071 57.805 38.2889 57.8931L38.3487 57.93C38.3089 58.1325 38.2672 58.3338 38.2273 58.535V58.4969C37.6747 57.4108 37.5461 55.8115 38.4103 54.7968Z" stroke="#268224"/>
<path d="M40.1767 54.7968L40.2795 55.0928H40.1767V54.7968Z" stroke="#268224"/>
<path d="M38.9275 56.0429C38.9649 56.1083 38.996 56.1769 39.0334 56.2392C38.996 56.1769 38.9617 56.1114 38.9275 56.0429Z" stroke="#268224"/>
<path d="M60.4642 56.0429C60.1584 56.1733 58.3798 63.9349 58.3483 64.9075C58.3203 65.7713 58.821 66.6079 58.821 67.2574H58.8607C58.8863 66.1064 58.9124 64.9562 58.9388 63.8068H58.9774V63.8782C59.1734 64.8138 59.3679 65.7486 59.5609 66.6827L59.7173 66.7178C59.7698 66.5739 59.8211 66.4299 59.8736 66.2871H59.9133L60.4968 66.3947C60.2098 65.8317 59.923 65.2687 59.6367 64.7057C59.2411 62.9532 59.3368 61.2132 60.1852 59.6522C60.1852 59.6522 63.8427 57.3567 64.236 57.6118C65.0529 58.1344 64.732 59.93 65.0098 60.7371C65.1101 61.0261 66.3962 62.2277 66.3962 62.2277L66.8268 62.2991H67.0696C64.9689 60.1453 65.6388 59.7826 65.0273 58.5254V58.4529H65.1055C65.5217 59.1126 65.9387 59.7716 66.3565 60.4299C66.3705 60.3936 66.772 61.475 66.7848 61.4387C66.7463 61.271 66.318 59.9878 66.2783 59.8189C66.1348 59.2419 65.7345 58.3452 64.9479 58.3452V58.3089C64.7659 58.106 64.7869 57.9031 64.6048 57.6979V57.7342L64.4099 57.6628L64.4484 57.6265L64.5651 57.5551C64.5511 57.5188 64.5383 57.4826 64.5254 57.4417C63.6163 56.6573 60.4572 59.039 60.4572 59.0956H60.4175C60.6509 58.5205 60.8843 57.9454 61.1177 57.3703L60.6871 57.478C60.5564 57.8249 60.4257 58.174 60.2961 58.5209V58.5561H60.2564C60.412 57.8615 60.5676 57.1667 60.7232 56.4714H60.6836L60.5669 56.4363H60.4105C60.4362 56.3229 60.4618 56.2197 60.4887 56.1121C60.484 56.0928 60.4758 56.0678 60.4642 56.0429Z" stroke="#268224"/>
<path d="M40.1767 56.0429L40.2795 56.1395V56.2392L40.0708 56.1395L40.1767 56.0429Z" stroke="#268224"/>
<path d="M69.2977 58.9844C69.2977 58.9702 69.5458 59.7951 69.5458 59.7809C69.7572 59.6723 69.8387 58.7349 70.0501 58.625C69.8434 57.8026 70.6406 56.9221 70.6406 57.3139L70.4824 57.4367C70.5225 57.6824 70.5615 57.9281 70.6005 58.175H70.6395C70.6536 58.1479 70.6654 58.1207 70.6796 58.0923L70.7587 58.175H70.7977V58.0923C70.8119 57.9966 70.8237 57.9009 70.8379 57.8052H70.8769V57.8867L71.1131 58.5836L71.4308 58.0923C71.3658 57.5453 71.2985 56.9997 71.2335 56.4528L71.1934 56.4114L70.8391 56.1244H70.7599V56.2472L70.7198 56.2886V56.2472C70.6666 56.18 70.6135 56.1114 70.5615 56.0429L68.9387 57.0269L69.0568 57.0669V57.7238C69.0308 57.6682 69.0036 57.6139 68.9777 57.5596" stroke="#268224"/>
<path d="M40.2795 56.0429C40.2425 56.1395 40.2085 56.2392 40.1746 56.3544V56.1551L39.968 56.3544L40.2795 56.0429Z" stroke="#268224"/>
<path d="M40.2795 56.0429L40.0708 56.3544H40.1736V56.1551L40.2795 56.0429Z" stroke="#268224"/>
<path d="M57.7242 56.6659C57.622 56.8293 57.5166 56.9905 57.4143 57.1495C57.3771 57.1953 57.3399 57.2432 57.3089 57.289H57.1012V57.1495L57.7242 56.6659Z" stroke="#268224"/>
<path d="M72.5741 56.6659L72.6769 57.289C72.6426 57.0824 72.6052 56.8725 72.5741 56.6659Z" stroke="#268224"/>
<path d="M57.1011 57.2889L56.8669 57.5378V57.6005H56.7896L56.8669 57.4143L57.1011 57.2889Z" stroke="#268224"/>
<path d="M56.4781 57.912C56.3722 58.0145 56.2694 58.121 56.1666 58.2235H55.8551L56.4781 57.912Z" stroke="#268224"/>
<path d="M37.1642 57.912C37.0085 58.1131 36.8527 58.3154 36.697 58.5176L36.6456 58.5524C36.6113 58.6367 36.5755 58.7198 36.5412 58.8019H36.6378V58.6592H36.6892C36.7079 58.8019 36.7235 58.9446 36.7421 59.0873V59.158H36.7935C36.9213 58.7434 37.0412 58.3311 37.1642 57.912Z" stroke="#268224"/>
<path d="M56.4781 58.535C56.4407 58.9504 56.4054 59.3657 56.3722 59.7811C56.4064 59.3643 56.4376 58.9504 56.4781 58.535Z" stroke="#268224"/>
<path d="M47.7557 59.1581C47.7215 59.2577 47.6841 59.3543 47.6529 59.454H47.547L47.7557 59.1581Z" stroke="#268224"/>
<path d="M47.1327 59.7811C47.0984 59.8865 47.061 59.992 47.0299 60.0926H46.924L47.1327 59.7811Z" stroke="#268224"/>
<path d="M44.3274 60.4041C44.2253 60.6614 44.1196 60.9201 44.0176 61.1774V61.6501C44.9432 61.6176 44.6501 60.7562 44.3274 60.4041Z" stroke="#268224"/>
<path d="M40.0708 60.4041C40.1393 60.8213 40.2089 61.2367 40.2795 61.6501C40.2141 61.2348 40.1393 60.8208 40.0708 60.4041Z" stroke="#268224"/>
<path d="M38.3044 60.4041C38.3418 60.4383 38.373 60.4726 38.4103 60.5038V60.6003L38.2016 60.5038L38.3044 60.4041Z" stroke="#268224"/>
<path d="M40.0487 61.6501C39.9189 62.8973 39.7882 64.1433 39.6565 65.3883L39.8028 65.3537C40.2258 64.387 40.4966 62.6893 40.0487 61.6501Z" stroke="#268224"/>
<path d="M38.0988 62.2732C38.2016 62.5914 38.3075 62.911 38.4103 63.2292C38.3418 63.7417 38.2722 64.2537 38.2016 64.7653C38.1642 63.935 38.13 63.1043 38.0988 62.2732Z" stroke="#268224"/>
<path d="M37.7873 62.2732C37.7668 62.4718 37.7444 62.6704 37.7257 62.8698C37.6418 62.8792 37.5579 62.8886 37.4758 62.8962C37.5778 62.6888 37.6816 62.4812 37.7873 62.2732Z" stroke="#268224"/>
<path d="M66.8831 62.2732C65.3248 63.0585 68.4392 64.8864 68.4392 65.5311C68.6812 65.8296 68.7319 65.8405 69.0809 65.8405V65.8058L69.1935 66.0114C69.3816 65.874 69.3737 65.7377 69.5617 65.6003H69.4863L69.3354 65.5657V65.5311C68.1284 65.1071 67.2333 63.3397 66.8831 62.2732Z" stroke="#268224"/>
<path d="M37.1642 63.5192C37.0957 63.7274 37.0241 63.934 36.9555 64.1423C37.0241 63.934 37.0926 63.7274 37.1642 63.5192Z" stroke="#268224"/>
<path d="M40.2795 64.7653C40.1955 64.9723 40.1116 65.1812 40.0295 65.3883H39.968V65.3312C40.0706 65.1419 40.1788 64.9545 40.2795 64.7653Z" stroke="#268224"/>
<path d="M31.5761 67.4594C31.0282 67.0723 31.8845 66.9477 32.0877 66.8799C32.115 67.0888 32.0546 67.2997 31.9218 67.4594H34.3749C34.2635 67.0513 34.1533 66.6432 34.0443 66.2351L34.2009 66.1976C34.4859 66.5545 34.7335 67.0082 34.4964 67.4594H41.9993C41.9993 67.0505 41.9993 66.6707 42.1067 67.0796C42.1433 67.2028 42.1633 67.3306 42.1663 67.4594H43.1008C43.0295 67.2781 43.0124 67.0787 43.0517 66.8872C43.0634 66.9005 43.0774 66.9126 43.0903 66.9259L43.1686 66.8872C43.3288 67.0621 43.4709 67.2539 43.5926 67.4594H43.9827L48.6225 67.0747C48.7394 66.5908 49.0104 65.9327 49.0816 65.8516L48.7802 67.0614L50.1703 66.9465L50.1388 66.8497L50.2556 66.9259V66.9392L50.3268 66.932L50.6049 66.69C50.585 66.7626 50.5651 66.8364 50.5464 66.909L51.2356 66.8521L51.3092 66.4602C51.294 66.5896 51.28 66.719 51.2648 66.8497L53.4165 66.6707C53.4048 66.3501 53.4165 66.0875 53.6981 65.8456C53.6513 66.1166 53.6058 66.3888 53.559 66.6598H53.5894L53.8417 66.7324C53.8336 66.7057 53.8242 66.6803 53.8149 66.6537L53.8628 66.7384L54.1046 66.8049C54.031 66.3089 53.8242 65.7827 54.2074 65.3883C54.2786 65.8226 54.4316 66.3815 54.4188 66.886C54.5356 66.9174 54.6723 66.9501 54.8113 66.9828L54.559 66.3851H54.8335L54.9503 66.5001C54.8965 66.6283 54.8463 66.7553 54.7938 66.8836C54.8054 66.9102 54.8183 66.9356 54.8323 66.961L54.8662 66.9961C56.435 67.359 58.8378 67.7522 58.4477 66.5702C58.3484 66.2726 60.8797 66.1843 60.8797 66.1843L61.4696 66.1952C61.5019 65.9895 61.575 65.793 61.6845 65.6182C61.6764 65.8117 61.6693 66.0053 61.6612 66.1988L62.6809 66.217C62.7705 66.0506 62.8995 65.9107 63.0559 65.8105C62.9917 65.9472 62.9286 66.0827 62.8655 66.2194L63.5956 66.2327L63.7603 65.8904C63.7381 66.0113 63.7171 66.1226 63.6949 66.2388L66.4458 66.2872C66.4458 66.2702 66.4563 66.2533 66.4622 66.2351L66.5054 66.2884L71.8332 66.3839L75.792 66.8933C75.792 66.8933 71.3847 68.0619 71.1464 67.9687C70.9081 67.8756 67.2016 67.7534 67.2016 67.7534L64.9892 68.8422L56.0588 69.1265L50.5348 68.5397L45.8623 69.1265L30.311 67.4643L31.5761 67.4594Z" stroke="#268224"/>
<path d="M49.1529 66.5925H49.0018L49.6248 66.0114L49.3133 66.6344L49.1529 66.5925Z" stroke="#268224"/>
<path d="M34.5591 66.6344C34.3885 66.427 34.2198 66.2187 34.0492 66.0114C34.5174 66.1974 34.7961 66.3527 34.6179 66.6344H34.5591Z" stroke="#268224"/>
<path d="M32.8157 66.7428C32.7026 66.378 33.3854 67.0321 33.4261 67.2574C33.3748 67.1547 32.9227 67.0887 32.8157 66.7428Z" stroke="#268224"/>
<path d="M33.3993 67.4163C33.4213 67.3663 33.4268 67.3106 33.4148 67.2574C33.4341 67.31 33.4284 67.3684 33.3993 67.4163Z" stroke="#268224"/>
</g>
</svg>
