<svg width="40" height="40" viewBox="0 0 40 40" fill="none" xmlns="http://www.w3.org/2000/svg">
<path d="M32.8569 30.7592L32.4932 30.4162C32.4629 30.4484 32.4256 30.463 32.3862 30.463C32.3496 30.463 32.3158 30.4501 32.289 30.4247L32.2871 30.423L24.8655 23.4605L24.8655 23.4605L24.8649 23.46C24.8083 23.407 24.8045 23.3153 24.8593 23.257L24.861 23.2552C24.9136 23.1987 25.0025 23.1926 25.0651 23.2511C25.0651 23.2511 25.0652 23.2512 25.0653 23.2512L32.4865 30.2133L32.487 30.2138C32.5437 30.2668 32.5475 30.3585 32.4927 30.4167L32.8569 30.7592ZM32.8569 30.7592C33.1007 30.5 33.0878 30.0911 32.8286 29.8486L25.4069 22.8862C25.1451 22.6411 24.7388 22.6527 24.495 22.9145C24.2512 23.1738 24.2641 23.5827 24.5234 23.8251L31.945 30.7876C32.0689 30.905 32.2275 30.963 32.3862 30.963C32.559 30.963 32.7293 30.8947 32.8569 30.7592Z" stroke="#268224"/>
<path d="M7.61253 30.4625C7.57395 30.4625 7.5357 30.4476 7.5058 30.416C7.45123 30.3577 7.4551 30.2662 7.51167 30.2133L7.51215 30.2128L14.935 23.2517C14.9351 23.2515 14.9353 23.2514 14.9354 23.2513C14.9984 23.1931 15.0902 23.2009 15.1402 23.2547L15.1402 23.2547L15.142 23.2566C15.1968 23.3148 15.193 23.4065 15.1363 23.4595L15.1358 23.4599L7.71162 30.4224L7.71162 30.4224L7.70967 30.4242C7.68293 30.4496 7.64909 30.4625 7.61253 30.4625Z" stroke="#268224"/>
<path d="M36.7754 36.9367H3.22456C1.72319 36.9367 0.5 35.7146 0.5 34.2122V12.2246C0.5 10.7222 1.72319 9.5 3.22456 9.5H36.7754C38.2768 9.5 39.5 10.7222 39.5 12.2246V34.2122C39.5 35.7146 38.2768 36.9367 36.7754 36.9367ZM3.22456 9.78982C1.88173 9.78982 0.789823 10.8817 0.789823 12.2246V34.2122C0.789823 35.555 1.88173 36.6469 3.22456 36.6469H36.7754C38.1183 36.6469 39.2102 35.555 39.2102 34.2122V12.2246C39.2102 10.8817 38.1183 9.78982 36.7754 9.78982H3.22456Z" stroke="#268224"/>
<path d="M1.39925 10.7812L1.39879 10.7808C1.33974 10.7294 1.33177 10.6382 1.38405 10.5762C1.43673 10.5179 1.52824 10.5105 1.591 10.5637C1.59128 10.564 1.59155 10.5642 1.59183 10.5644L18.1506 25.0083L18.1508 25.0084C19.1631 25.8908 20.8368 25.8912 21.8483 25.0081L38.3887 10.5855L38.3892 10.5851C38.4475 10.5342 38.5379 10.5372 38.5941 10.5994C38.6469 10.6621 38.6391 10.7526 38.5797 10.8048C38.5797 10.8048 38.5796 10.8049 38.5796 10.8049L22.0396 25.2271C21.4864 25.7093 20.7505 25.9592 20 25.9592C19.2492 25.9592 18.5121 25.7092 17.9604 25.2284L1.39925 10.7812Z" stroke="#268224"/>
</svg>
