<svg width="40" height="40" viewBox="0 0 40 40" fill="none" xmlns="http://www.w3.org/2000/svg">
<g clip-path="url(#clip0)">
<path d="M38.6736 31.2748L38.673 31.2744L30.5784 25.8762C30.5782 25.8761 30.5781 25.876 30.5779 25.8759C29.7682 25.3406 28.6831 25.5167 28.0842 26.2807C28.0841 26.2809 28.0839 26.2811 28.0837 26.2814L25.7282 29.31C25.2744 29.9057 24.4519 30.0782 23.797 29.7147C23.7968 29.7146 23.7966 29.7145 23.7965 29.7144L23.3514 29.469C23.351 29.4688 23.3507 29.4686 23.3503 29.4685C21.8263 28.6378 19.9363 27.6005 16.1714 23.8343C12.4058 20.0674 11.367 18.1761 10.5363 16.6549L10.292 16.2093C9.92512 15.5548 10.0949 14.7301 10.6903 14.2736L13.7176 11.9183C13.7178 11.9181 13.718 11.918 13.7182 11.9178C14.4819 11.3189 14.6584 10.2342 14.124 9.42408C14.1238 9.42379 14.1236 9.4235 14.1234 9.42321L8.7254 1.3289L8.725 1.3283C8.17724 0.504361 7.07826 0.256994 6.23024 0.766768L6.2301 0.76685L2.84459 2.80053L2.84054 2.80297L2.84052 2.80295C1.88855 3.36261 1.19003 4.26885 0.891261 5.33187C-0.259899 9.52857 0.5256 17.0173 11.754 28.2471C11.7541 28.2471 11.7541 28.2471 11.7541 28.2471M38.6736 31.2748L31.6682 39.999C27.0715 39.999 20.3839 37.5833 11.4005 28.6007L11.7541 28.2471M38.6736 31.2748C39.4979 31.8229 39.7452 32.9226 39.2346 33.7708L39.2346 33.7709L37.1989 37.1543L37.1962 37.1589C36.6371 38.1108 35.7311 38.8092 34.6683 39.1077M38.6736 31.2748L34.6683 39.1077M11.7541 28.2471C20.6889 37.1813 27.2568 39.499 31.6682 39.499H31.6703C32.6827 39.5033 33.691 39.3717 34.6683 39.1077M11.7541 28.2471L34.6683 39.1077M34.587 38.7869L34.5827 38.7881C30.23 39.9831 22.8882 38.9092 11.9901 28.0111C1.09198 17.113 0.0181214 9.77178 1.21314 5.41846L1.21432 5.41417L1.21433 5.41418C1.49274 4.4342 2.13909 3.59965 3.01818 3.08493L6.40076 1.05566C6.40086 1.0556 6.40096 1.05554 6.40105 1.05548C7.0975 0.636636 8.00018 0.83981 8.45005 1.51653L11.3826 5.91929L11.3827 5.91948L13.8443 9.6114L13.8453 9.61297C14.2838 10.2761 14.1397 11.1647 13.5142 11.6553L13.5126 11.6566L10.4817 14.0142L10.4785 14.0167L10.4785 14.0167C9.75375 14.5709 9.54682 15.5735 9.99299 16.3693L9.99492 16.3727L9.99491 16.3727L10.2356 16.81L10.2365 16.8117L10.2458 16.8287C11.0763 18.352 12.1144 20.2559 15.9289 24.0697C19.7435 27.8837 21.6468 28.9218 23.1694 29.7523L23.1863 29.7615L23.1882 29.7625L23.6261 30.0038L23.6293 30.0056C24.425 30.4517 25.4277 30.2448 25.9819 29.5201L25.9844 29.5169L25.9844 29.5169L28.342 26.486L28.3434 26.4842C28.8341 25.8591 29.7223 25.7153 30.3854 26.1531L30.3873 26.1544L38.4818 31.553L34.587 38.7869ZM34.587 38.7869C35.566 38.5088 36.3997 37.8631 36.9137 36.9849C36.9142 36.9841 36.9147 36.9832 36.9151 36.9824M34.587 38.7869L36.9151 36.9824M36.9151 36.9824L38.9427 33.6027C39.3622 32.9066 39.1595 32.0035 38.4827 31.5536L36.9151 36.9824Z" stroke="#268224"/>
<path d="M22.666 6.17H22.6655C22.5735 6.17 22.4989 6.09546 22.4989 6.00346C22.4989 5.91145 22.5735 5.83691 22.6655 5.83691V5.33691L22.6649 5.83691C29.3805 5.84427 34.8227 11.2864 34.8302 18.002C34.8301 18.0938 34.7556 18.1682 34.6637 18.1682C34.5717 18.1682 34.4972 18.0937 34.4972 18.0017V18.0011C34.4898 11.47 29.1971 6.17726 22.666 6.17Z" stroke="#268224"/>
<path d="M22.6661 10.1695H22.6655C22.5735 10.1695 22.4989 10.095 22.4989 10.003C22.4989 9.91096 22.5735 9.83643 22.6655 9.83643V9.33643L22.6649 9.83643C27.1725 9.84158 30.8255 13.4944 30.8308 18.0021C30.8307 18.094 30.7562 18.1683 30.6643 18.1683C30.5723 18.1683 30.4977 18.0938 30.4977 18.0018L30.4977 18.0012C30.4927 13.678 26.9893 10.1746 22.6661 10.1695ZM22.6655 10.6695C26.713 10.6743 29.993 13.9543 29.9977 18.0018L22.6655 10.6695Z" stroke="#268224"/>
<path d="M22.6661 14.169H22.6655C22.5735 14.169 22.4989 14.0945 22.4989 14.0025C22.4989 13.9105 22.5735 13.8359 22.6655 13.8359V13.3359L22.6649 13.8359C24.9648 13.8385 26.8285 15.7022 26.8314 18.002C26.8313 18.0939 26.7568 18.1684 26.6649 18.1684C26.5729 18.1684 26.4983 18.0939 26.4983 18.0019L26.4983 18.0013C26.4957 15.8858 24.7815 14.1715 22.6661 14.169ZM22.6655 14.669C24.5052 14.6712 25.9961 16.1621 25.9983 18.0019L22.6655 14.669Z" stroke="#268224"/>
</g>
<defs>
<clipPath id="clip0">
<rect width="40" height="40" fill="white"/>
</clipPath>
</defs>
</svg>
