<svg width="40" height="40" viewBox="0 0 40 40" fill="none" xmlns="http://www.w3.org/2000/svg">
<path d="M24.0952 29.1715L23.6759 29.8671L24.4858 29.9283C26.3916 30.0722 29.4898 30.4015 32.1016 31.1151C33.4111 31.4729 34.5613 31.9177 35.3738 32.4603C36.1897 33.005 36.5767 33.584 36.5781 34.2041C36.5777 34.8039 36.1914 35.4036 35.2945 35.9856C34.4032 36.564 33.101 37.0587 31.5037 37.4583C28.3168 38.2555 24.0933 38.6406 20.0078 38.6406C15.9184 38.6406 11.6949 38.2555 8.50907 37.4583C6.91228 37.0588 5.6108 36.564 4.72017 35.9857C3.82352 35.4035 3.4375 34.8034 3.4375 34.2031C3.4375 33.5831 3.82266 33.0045 4.63644 32.46C5.44709 31.9176 6.5954 31.4729 7.9034 31.1151C10.5122 30.4015 13.6084 30.0722 15.5142 29.9283L16.3241 29.8671L15.9048 29.1715C14.2955 26.5024 12.4792 23.3004 11.0669 20.2896C10.3607 18.7842 9.75921 17.3343 9.33506 16.028C8.90877 14.7151 8.67188 13.5776 8.67188 12.6875C8.67188 6.4402 13.7527 1.35938 20 1.35938C26.2473 1.35938 31.3281 6.4402 31.3281 12.6875C31.3281 13.5776 31.0912 14.7151 30.6649 16.028C30.2408 17.3343 29.6393 18.7842 28.9331 20.2896C27.5208 23.3004 25.7045 26.5024 24.0952 29.1715ZM19.5818 33.8287L20 34.4671L20.4182 33.8287C21.6087 32.0117 24.168 28.0102 26.4316 23.8431C27.563 21.7601 28.6254 19.6268 29.4063 17.6991C30.1804 15.7878 30.7031 14.0193 30.7031 12.6875C30.7031 6.78636 25.9011 1.98438 20 1.98438C14.1064 1.98438 9.30469 6.78661 9.30469 12.6875C9.30469 14.0192 9.82681 15.7877 10.6002 17.6989C11.3803 19.6267 12.4418 21.76 13.5723 23.843C15.8338 28.0101 18.3912 32.0116 19.5818 33.8287ZM16.8625 30.7209L16.7057 30.4681L16.4088 30.4852C12.2383 30.7252 9.22445 31.3164 7.23858 31.9683C6.24805 32.2935 5.49574 32.6394 4.98008 32.9761C4.7231 33.1439 4.50803 33.3202 4.35172 33.5046C4.20177 33.6814 4.0625 33.9176 4.0625 34.1953C4.0625 34.5346 4.26046 34.8133 4.46342 35.0152C4.67802 35.2286 4.9745 35.4327 5.3302 35.6265C6.04484 36.016 7.07963 36.4074 8.40684 36.757C11.0668 37.4575 14.9701 38.0078 20 38.0078C25.0297 38.0078 28.933 37.4595 31.5939 36.7599C32.9216 36.4109 33.9572 36.0197 34.673 35.6299C35.0293 35.4358 35.3263 35.2314 35.5416 35.0176C35.7455 34.8151 35.943 34.537 35.9453 34.1988V34.1953C35.9453 33.9177 35.8071 33.6811 35.6567 33.5031C35.5003 33.3179 35.2851 33.141 35.028 32.973C34.5121 32.6357 33.7595 32.29 32.769 31.9653C30.7831 31.3144 27.7693 30.7252 23.599 30.4852L23.3021 30.4681L23.1453 30.7209C22.3695 31.9725 21.6896 33.044 21.1837 33.8261C20.9306 34.2174 20.7218 34.5351 20.5667 34.7664C20.4891 34.8821 20.4258 34.9748 20.3777 35.0435C20.3536 35.0779 20.3342 35.105 20.3193 35.1253C20.3049 35.1449 20.2981 35.1534 20.297 35.1548C20.2135 35.2528 20.1448 35.2921 20.1007 35.3087C20.0567 35.3254 20.0147 35.3281 19.9708 35.3206C19.8668 35.3029 19.768 35.229 19.7289 35.1776C19.5826 34.9792 18.4152 33.2255 16.8625 30.7209Z" stroke="#268224"/>
<path d="M20 8.03906C22.5676 8.03906 24.6484 10.1199 24.6484 12.6875C24.6484 15.2551 22.5676 17.3359 20 17.3359C17.4324 17.3359 15.3516 15.2551 15.3516 12.6875C15.3516 10.1199 17.4324 8.03906 20 8.03906ZM20 8.66406C17.7785 8.66406 15.9766 10.466 15.9766 12.6875C15.9766 14.909 17.7785 16.7109 20 16.7109C22.2215 16.7109 24.0234 14.909 24.0234 12.6875C24.0234 10.466 22.2215 8.66406 20 8.66406Z" stroke="#268224"/>
</svg>
